<svg xmlns="http://www.w3.org/2000/svg" width="512" height="512" viewBox="0 0 512 512"><rect width="512" height="512" fill="#dbeafe" rx="80"/><g fill="none" stroke="#3b82f6" stroke-linecap="round" stroke-linejoin="round" stroke-width="16.667"><path d="M256 306V197.667m25 66.666A34.75 34.75 0 0 1 256 231a34.75 34.75 0 0 1-25 33.333m71.65-54.166a25 25 0 1 0-46.65-12.5 25 25 0 1 0-46.65 12.5"/><path d="M305.975 198.708a33.333 33.333 0 0 1 21.05 48.084"/><path d="M306 306a33.333 33.333 0 0 0 16.667-62.2"/><path d="M322.392 301.692A33.333 33.333 0 1 1 256 306a33.333 33.333 0 1 1-66.392-4.308"/><path d="M206 306a33.333 33.333 0 0 1-16.667-62.2"/><path d="M206.025 198.708a33.333 33.333 0 0 0-21.05 48.084"/></g></svg>