<?xml version="1.0" encoding="UTF-8"?>
<svg id="Layer_1" xmlns="http://www.w3.org/2000/svg" version="1.1" viewBox="200 145 220 130">
  <!-- Generator: Adobe Illustrator 30.2.1, SVG Export Plug-In . SVG Version: 2.1.1 Build 1)  -->
  <defs>
    <style>
      .st0 {
        fill: #fefefe;
      }

      .st1 {
        fill: #01824f;
      }

      .st2 {
        fill: #d50016;
      }
    </style>
  </defs>
  
  <path class="st2" d="M271.12,160.96h.08s0,.07.06.08l.08.09.07.09.07.1.07.09.07.09.07.1c.6.77,1.12,1.53,1.59,2.39.69,1.28,1.18,2.58,1.45,4,.23,1.15.28,2.27.29,3.44l-.07,1.61-.56,7.12-1.26,15.98c-.02.1-.02.14.02.2,0,.02.05.04.13.04l.56.02c.06,0,.1,0,.16,0l2.74.11c.46.03.9.11,1.27.45.03.02.06.04.08.06l.07.07c.58.74.82,1.64.66,2.57v.16s-.73,3.36-.73,3.36l-1.39,6.38c-.02.06-.06.1-.14.12l-4.22.58c-.07.02-.13.02-.14.12l-.36,9.5c0,.07,0,.11,0,.17v.16s0,.16,0,.16c0,.06,0,.1.02.16,0,.47.02.9.09,1.34.1.35.21.69.41,1l.08.11s.04.05.07.08c.06.07.12.11.23.11l1.09-1.07,2.85-3.39,1.83-2.45s.06-.07.08-.12c.13-.11.18-.25.12-.42-.15-.75-.26-1.48-.3-2.24-.03-1.04.03-2.01.13-3.05.23-2.19.54-4.3.95-6.47.22-1.11.46-2.13.78-3.18.19-.6.41-1.19.71-1.76.23-.41.47-.8.8-1.13.62-.68,1.49-1.03,2.4-.94,1.11.07,2.12.54,2.85,1.41.61.8.94,1.72.99,2.71,0,.78-.12,1.49-.34,2.24l-1.37,4.96-.8,3.84c-.1.73-.2,1.42-.22,2.16,0,.22-.04.43.02.67-.09.17.02.29.04.09l.55-1.95.04-.15s.02-.06.03-.1l.04-.14s.02-.06.03-.11l.8-2.96.62-2.07s.02-.06.03-.1l.04-.14.03-.1.05-.14.03-.1.05-.14.03-.09.05-.15s.02-.06.03-.09l1.09-2.91c1.12-2.85,2.57-5.51,4.3-8.03.43-.58.89-1.08,1.52-1.45l.12-.06.1-.05.1-.04.11-.04s.06-.02.1-.04l.16-.04s.07-.02.1-.03c.46-.09.93-.08,1.34.2.32.23.57.52.78.83.23.33.41.65.61,1l.06.11c.91,1.74,1.64,3.52,2.17,5.42.15.52.17,1.01.14,1.53-.06.83-.24,1.6-.49,2.4l-1.17,4.48c-.34,1.54-.63,3-.82,4.56-.1.98-.18,1.91-.15,2.88.03.67.1,1.31.27,1.94.12.4.25.79.47,1.15.06.08.12.16.18.2.08.03.14,0,.22-.05.36-.26.63-.61.89-.98l2-3.41c-.8-3.22-.73-6.52.2-9.73.59-2.01,1.33-3.84,2.34-5.68,1.15-2.09,2.56-3.9,4.31-5.52.54-.48,1.03-.89,1.62-1.25.54-.33,1.1-.6,1.74-.73.75-.16,1.48-.06,2.16.29.5.25.92.57,1.33.92.05.05.1.09.15.12.04-.03.06-.07.07-.11,0-.03,0-.06,0-.1v-.16c0-.06,0-.1,0-.16l.16-4.15v-.17s.43-7.2.43-7.2c.21-2.75.44-5.4.84-8.1.01-.04.01-.09.02-.15.21-1.28.45-2.52.85-3.74.01-.03.03-.06.04-.1.18-.47.37-.89.69-1.24.18-.19.41-.33.69-.43.59-.13,1.16.04,1.66.35.38.25.7.55,1.01.9.99,1.13,1.61,2.49,1.86,3.96.14.79.19,1.56.23,2.38v2.08s-.26,3.93-.26,3.93l-1.44,13.67c-.39,3.6-.61,7.12-.68,10.7v2.85c.07,2.47.33,4.89.86,7.33.25,1.11.51,2.13.87,3.17.24.63.48,1.25.86,1.81.17.25.36.48.64.63.1.04.19.04.28.01.33-.18.57-.48.8-.79.36-.52.64-1.06.93-1.63l1.56-3.58-.36-1.94c-.16-1.13-.18-2.22-.1-3.36l.43-3.92,1.14-5.5c.47-1.84,1.04-3.61,1.74-5.36.37-.89.76-1.74,1.27-2.56.28-.45.57-.87.97-1.21.44-.39,1-.54,1.59-.4.51.1.92.36,1.34.66,1.14.97,2.04,2.17,2.65,3.56.38.87.54,1.72.51,2.65-.02,1.18-.19,2.27-.41,3.45-.61,2.86-1.44,5.59-2.55,8.3l-1.65,3.84.15,2.57c-.02.57.02,1.12.25,1.62.05.07.1.07.16.02.36-.35.65-.73.98-1.16.77-1.06,1.44-2.1,2.07-3.22l1.87-3.83c1.08-2.53,2-5.03,2.78-7.67l1.24-4.98c.17-.72.35-1.42.6-2.13.14-.38.31-.73.58-1.03.26-.29.59-.49.97-.55.55-.1,1.09.03,1.58.36.47.33.81.76,1.11,1.23.29.45.51.91.73,1.42.34.82.6,1.63.83,2.46.19.65.28,1.32.3,2.02.03.76-.01,1.48-.09,2.24l-.72,5.52-1.42,10.47-.6,5.61c-.01.13.08.19.1.11.01-.11.03-.16.06-.22l2.29-5.91,1.3-2.97.05-.12.05-.1.05-.1.05-.12s.03-.06.06-.11l2.14-4.25.06-.12.06-.08s.05,0,.08.03l.16.59.03.1.04.14s.02.07.03.1l.04.15.04.14.92,3.38.04.14.03.1.04.14.03.1.04.16.03.1.04.14.04.14s.02.06.03.1l.04.14.03.1.04.16s.02.08.03.1l.03.16-2.9,9.99-3.09,12.46-.81,3.86-1.11,5.51-.37,2.15-.44,2.02c-.1.34-.22.66-.42.95-.34.5-.92.74-1.52.59-.42-.1-.75-.35-1.04-.65-.39-.4-.67-.84-.95-1.31-.59-1.02-1.08-2.06-1.53-3.17-.31-.78-.54-1.52-.72-2.33-.15-.75-.25-1.48-.23-2.24l.02-1.36.03-1.13.5-8.08,1.13-11.83c-.06-.14-.1-.06-.09.08-.03.04-.05.07-.06.09l-.23.48s-.03.08-.06.12l-.05.1-.04.1-.06.14-.04.1-.06.12-.05.1-.04.1-.05.12-.05.11-.04.09-.06.14-.05.1-.05.12-.05.1-.04.1-.06.12-.05.1-.04.1-.05.12-.05.1-.06.14-.05.1-.05.1-.06.12-.05.1-.05.1-.06.12-.05.1-.05.1-.06.12-.05.08s-.03.05-.05.1l-.05.1-.07.12-.05.1-.06.11-.06.1-.06.11-.06.1-.05.08-.07.12-.06.1-.06.1-.05.08-.07.12-.06.1-.06.09-.06.09-.07.11-.06.08-.07.09-.06.09-.07.1-.07.08-.07.09-.08.1-.07.08-.07.09-.08.08-.08.08-.07.09-.08.08-.09.07-.08.08-.09.07-.09.07-.1.07-.09.06-.1.06-.11.06-.1.05-.11.05-.14.05s-.06.02-.1.03l-.16.04h-.14s-.1.03-.1.03c-.06,0-.1,0-.14,0-.03,0-.06-.01-.1-.02l-.16-.02-.16-.04s-.07-.02-.1-.03l-.14-.05-.11-.05-.1-.05-.11-.06-.1-.06-.08-.05-.11-.08-.09-.07-.09-.07s-.05-.05-.07-.06c-.04-.03-.07-.06-.11-.09l-.07-.07-.09-.07-.08-.08-.08-.08-.08-.08-.07-.09-.07-.07s-.07-.07-.09-.11c-.01-.02-.03-.04-.06-.07l-.08-.09-.07-.09-.07-.08-.07-.09-.08-.1-.07-.08-.07-.09-.07-.09-.07-.09-.06-.09-.08-.11-.06-.08-.07-.09-.07-.1-.06-.09-.06-.09-.07-.11-.06-.08-.07-.1-.06-.09-.05-.08-.07-.11-.07-.11-.05-.09-.06-.09-.07-.11-.05-.08-.06-.1-.06-.11-.07-.12-.05-.08-.06-.1-.06-.11-.07-.12-.05-.08-.06-.1-.06-.11-.07-.11-.06-.1-.06-.1-.05-.08-.07-.12-.05-.1-.05-.1-.07-.12-.06-.1-.05-.09-.05-.08-.07-.12-.05-.1-.05-.1-.07-.12-.05-.1-.06-.1-.06-.12-.05-.1s-.04-.08-.05-.1l-.05-.08-.06-.11s-.03-.06-.04-.11c-.02-.06-.05-.09-.08-.07l-.04.13-.03.1-.04.16-.03.1-.04.14-.03.1-.04.14-.04.14-.03.09-.04.14s-.02.06-.03.1l-.04.14-.04.1-.04.16-.04.11-.04.14-.03.1-.05.14-.03.09-.04.14-.04.1-.04.14-.04.1-.04.14-.04.1-.05.14-.04.1-.05.14-.04.1-.05.13-.04.11-.04.1-.04.1-.05.15-.04.1-.04.09-.05.15-.04.09-.06.15-.04.1-.05.11-.04.1-.05.1-.06.14-.04.1-.05.12-.04.1-.05.1-.06.12-.04.1s-.03.07-.05.1l-.06.12s-.03.05-.05.1l-.05.1-.06.12s-.03.05-.05.1l-.05.1-.07.12-.05.09-.06.11-.06.11s-.03.05-.05.08c-.02.03-.04.06-.06.1l-.06.11-.07.11-.06.09-.06.09-.07.11-.05.08-.08.11-.06.09-.06.08-.07.1-.08.1-.07.09-.07.08-.06.07-.09.1-.08.08-.08.08-.08.09-.09.08-.08.08s-.04.04-.08.08l-.08.06-.1.08-.08.07-.1.07-.09.06s-.06.04-.09.06l-.12.08-.08.05-.1.05-.1.05-.12.06-.1.04-.14.05-.1.04-.14.04s-.06.02-.1.03l-.16.03c-.06.01-.1.02-.16.02h-.1s-.14.03-.14.03h-.16s-.16,0-.16,0h-.14s-.06-.02-.1-.03l-.16-.02-.16-.03s-.07-.02-.1-.02l-.14-.04-.14-.04-.09-.03-.15-.05-.09-.04-.1-.05-.12-.06-.1-.05-.1-.06-.08-.05-.11-.07-.09-.07-.09-.07-.08-.07-.09-.08-.09-.07-.08-.08-.08-.08-.08-.08-.08-.08-.08-.08-.07-.09-.08-.09-.07-.08-.07-.09-.07-.09-.07-.09-.07-.11-.07-.09-.07-.1-.06-.1-.05-.08-.07-.12-.06-.1-.06-.1-.06-.11-.05-.09-.05-.1-.06-.11-.05-.11-.05-.11-.05-.11-.05-.11-.05-.11-.04-.1-.06-.12-.04-.1-.06-.14-.04-.1-.05-.11-.05-.11-.04-.1-.06-.15-.04-.1-.04-.1-.05-.15-.04-.11-.04-.1-.04-.1-.05-.14-.04-.1-.05-.14-.04-.1-.04-.14-.04-.09-.05-.15-.03-.09-.04-.15-.04-.1-.04-.14-.04-.1-.04-.14-.03-.1-.04-.14-.03-.1-.05-.16-.03-.1-.04-.14-.03-.1-.04-.15-.04-.13-.03-.1-.04-.14-.03-.1-.04-.16s-.02-.07-.03-.1l-.04-.15-.03-.13s-.02-.06-.03-.1l-.04-.16-.03-.1-.03-.14-.03-.14-.03-.1-.04-.16-.03-.1-.03-.14-.03-.14-.03-.1-.04-.16-.03-.1-.03-.14-.03-.14-.03-.1-.03-.16-.03-.1-.03-.14-.04-.16-.02-.1-.03-.14-.03-.14-.02-.1-.03-.16-.03-.14-.02-.1-.03-.16-.03-.14-.02-.1-.03-.17-.02-.1-.03-.14-.03-.16-.02-.1-.03-.14-.03-.16-.02-.1-.03-.14c-.02-.06-.04-.1-.02-.17.01-.05-.02-.09-.07-.07-.02.07-.02.1-.04.14-.02.03-.04.06-.05.09l-.04.14-.03.09-.04.14-.03.11-.04.13s-.02.06-.03.1l-.05.16-.04.11-.04.14-.03.1-.04.14s-.02.07-.03.09l-.04.14-.04.1-.04.15-.03.09-.05.15-.03.09-.05.15-.03.09-.05.15-.03.09-.04.14-.05.15-.03.09-.04.1-.05.15-.03.09-.05.15-.03.09-.05.15-.03.09-.05.15-.04.09-.04.14-.04.1-.05.14-.04.1-.05.14-.04.1-.04.13c-.02.05-.03.08-.04.11l-.04.1-.04.1-.05.14-.04.1-.05.14-.04.09-.04.1-.05.15-.04.1-.05.14-.04.1-.04.11-.04.11-.05.14-.04.1-.04.09-.06.15-.04.1-.05.11-.04.11-.06.14-.04.1-.04.1-.06.14-.04.1-.05.11-.04.1-.05.1-.06.14-.04.1-.06.12-.04.1-.05.1-.05.12-.05.1-.05.1-.06.12-.05.1-.05.1-.06.12-.05.1-.06.11-.06.1-.06.11-.06.1-.05.08-.07.12-.06.1-.06.09-.06.08-.07.11s-.04.06-.07.09l-.07.09-.07.08-.08.1-.07.09-.08.08-.08.08-.08.08-.09.07-.1.07-.09.06-.1.06-.1.05-.11.05-.14.04s-.06.02-.1.03c-.06.01-.1.02-.16.02l-.16.02c-.06,0-.1-.02-.16-.01-.06,0-.1-.01-.16-.02-.04,0-.07-.01-.1-.02l-.15-.04-.09-.03-.14-.05-.1-.05-.12-.06-.08-.05-.09-.06-.11-.07-.09-.06-.1-.07-.08-.07-.09-.07-.09-.08-.09-.07-.08-.08-.08-.08-.08-.08-.08-.08-.08-.08-.08-.08-.08-.08-.07-.09-.08-.08-.07-.09-.07-.08-.07-.08-.07-.09-.08-.1-.07-.08-.07-.09-.07-.09-.07-.09-.07-.09-.07-.09-.07-.1-.07-.09s-.04-.06-.07-.09l-.07-.1-.06-.09-.06-.09-.08-.11-.06-.08-.06-.09-.06-.09-.07-.1-.06-.09-.07-.11-.06-.08-.07-.1-.06-.09-.05-.08-.07-.11-.06-.1-.06-.09-.06-.09-.07-.11-.05-.08-.06-.1-.06-.11-.07-.12-.05-.08-.06-.1-.06-.11-.07-.12-.05-.08-.06-.1-.06-.11-.06-.1-.06-.11-.06-.1-.06-.11-.05-.09-.05-.09-.06-.11-.06-.1-.06-.11-.05-.1-.07-.12-.05-.1-.05-.1-.05-.11-.05-.09-.05-.1-.05-.1-.06-.12-.05-.1-.05-.1-.06-.12-.05-.1-.05-.1-.06-.12-.05-.1-.05-.1-.06-.12-.05-.1-.05-.1s-.05-.07-.07-.12c-.02,0-.04,0-.07.03-.02.03-.03.06-.05.11l-.06.15-.04.1-.04.09-.05.14-.04.1-.04.11-.04.11-.06.14-.04.1-.04.1-.06.15-.04.1-.05.11-.04.11-.06.14-.04.1-.04.09-.06.15-.04.1-.05.11-.04.1-.06.14-.04.1-.04.1-.06.14-.04.1-.05.12-.04.1-.04.09-.06.15-.04.1-.05.11-.05.11-.04.09-.06.14-.05.11-.05.1-.05.11-.04.1-.06.14-.04.1-.06.12-.04.1-.04.1-.05.12-.05.1-.04.1-.05.12s-.03.06-.05.1l-.06.14-.05.1-.05.1-.06.12-.05.1-.05.1-.06.12-.05.1-.06.1-.05.08-.06.12-.06.1-.06.11-.07.11-.05.09-.06.09-.06.11-.07.11-.05.08-.07.11-.06.09-.06.09-.07.09-.07.1-.07.08-.07.09-.08.1-.08.09-.06.08-.08.08-.08.08-.08.08-.08.08-.08.08-.08.08-.1.08-.08.07-.09.07-.09.06-.11.08-.08.05-.1.06-.1.05-.12.06-.1.04-.1.04-.15.05-.1.03-.14.04-.16.03-.1.02h-.14s-.16.01-.16.01h-.16s-.16,0-.16,0c-.04,0-.07,0-.1-.01l-.14-.02-.16-.03-.14-.03-.1-.03-.16-.05-.11-.04-.11-.04-.11-.04-.1-.05-.12-.06s-.05-.03-.1-.05l-.1-.06-.11-.07-.09-.06-.09-.06-.1-.07-.08-.07-.1-.08-.06-.06-.11-.09-.08-.08-.08-.08-.08-.08s-.04-.04-.08-.08l-.06-.08-.08-.09-.07-.08-.07-.09-.07-.1-.06-.09s-.04-.06-.06-.09l-.07-.09-.07-.11-.06-.1-.06-.1s-.03-.05-.05-.09l-.07-.11-.06-.1-.06-.1-.06-.11-.05-.09-.05-.1-.05-.1-.06-.12-.04-.1-.06-.14-.04-.1-.05-.11-.05-.12-.04-.1-.06-.15-.04-.09-.04-.1-.05-.14-.04-.11-.04-.1-.04-.1-.05-.14s-.02-.06-.03-.1l-.05-.14-.03-.1-.05-.14s-.02-.06-.03-.11l-.04-.13s-.02-.06-.03-.1l-.05-.16-.03-.1-.04-.14-.03-.1-.03-.14-.04-.14-.03-.1-.04-.16-.03-.1-.03-.14-.03-.14-.02-.1-.03-.16-.03-.14-.02-.1-.03-.16-.03-.14s-.01-.06-.02-.1l-.03-.16-.02-.16-.02-.1-.02-.14-.02-.16-.02-.16-.02-.1-.02-.14c0-.06-.02-.1-.01-.16,0-.06-.01-.1-.02-.16v-.16s-.02-.14-.02-.14v-.1s-.02-.16-.02-.16c0-.06,0-.1-.01-.16v-.16c0-.06,0-.1,0-.16-.01-.06-.01-.1-.01-.16v-.16s0-.16,0-.16l-.02-.16v-.16s0-.16,0-.16v-.16s0-.16,0-.16v-.16s0-.16,0-.16v-.16s0-.16,0-.16l.02-.16c0-.06,0-.1,0-.17l.53-7.28c-.19.05-.11.26-.21.38,0,.03-.02.06-.04.12l-.04.13-.04.1-.05.14-.04.1-.05.14-.04.09-.04.1c-.57,1.61-1.06,3.18-1.43,4.86l-1.07,5.11-.03.16-.03.14-.02.1-.02.16-.03.16-.02.1-.02.14-.03.16-.02.1-.03.14-.03.14-.02.1-.03.16-.03.14s-.02.06-.02.1c-.25,1.05-.43,2.09-.86,3.06-.04.03-.05.07-.07.12l-.05.09-.07.11-.06.09-.07.09s-.05.06-.08.1c-.59.69-1.54.88-2.35.47-.03-.01-.06-.03-.1-.05-.37-.23-.67-.49-.94-.81l-.08-.08c-.52-.62-.92-1.26-1.32-1.97-1.12-1.95-1.97-3.98-2.73-6.11l-2.51,3.79-.05.09-.37.62-1.17,2.18-1.71,3.1c-.33.54-.64,1.03-1.04,1.51-.29.35-.58.66-.93.92-.69.54-1.53.81-2.42.77-.62-.05-1.15-.28-1.69-.63-1.25-.88-2.2-2.01-2.89-3.35-.57-1.12-.96-2.27-1.24-3.48-.18-1-.25-1.99-.27-3.02l-.03-1.21.17-5.76.33-5.9-.97.03-2.22.08h-.88c-.3.04-.58.04-.88,0h-1.5s-2.98-.09-2.98-.09l-2.01-.06c-1.19,3.84-2.46,7.54-3.85,11.28l-1.05,2.89-2.77,7.58c-.4,1.05-.84,1.99-1.39,2.94-.24.4-.5.76-.83,1.09-.33.31-.7.57-1.14.72-1.06.36-2.16,0-2.81-.91-.34-.46-.52-.97-.67-1.5-.15-.58-.21-1.16-.24-1.78-.03-.9.02-1.75.11-2.64.17-1.51.41-2.96.76-4.42.38-1.56.86-3.05,1.52-4.52.29-.63.6-1.21,1.02-1.77.29-.38.61-.73,1.03-.99.54-.34,1.12-.48,1.8-.36l2.51-8.08c-.65-.11-1.26-.12-1.91-.15-.79-.04-1.55-.1-2.3-.31-.73-.18-1.31-.6-1.71-1.22-.6-.98-.86-2.12-.81-3.3,0-.88.14-1.7.32-2.57.34-1.5.79-2.92,1.35-4.34.3-.68.62-1.31,1.08-1.88.48-.62,1.1-1.08,1.84-1.33.44-.16.88-.24,1.33-.33.9-.15,1.8-.21,2.74-.25l.88-.03c.64-.03,1.14.42,1.2,1,.04.57-.34,1.09-.96,1.18-.58.15-1.13.3-1.68.53-.32.16-.65.25-.87.59h2.29s1.49-.03,1.49-.03l3.33-8.7,2.7-6.44c1.7-3.81,3.61-7.49,5.79-11.09,2.31-3.79,4.95-7.29,7.94-10.52.06-.1.13-.12.13-.2ZM265.63,196.51l.49-5.14,1.36-13.51.27-2.87c-.98,1.52-1.76,3.03-2.59,4.59-1.53,2.98-2.95,5.96-4.29,9.04-1.15,2.66-2.17,5.29-3.14,8.12l7.9-.22ZM309.55,219.92c.13.37.24.7.56,1.02.42-.61.66-1.26.98-1.92l2.56-5.73,1.37-3.12c.23-.59.43-1.14.6-1.76.35-1.43.47-2.84.36-4.32-.91.73-1.66,1.49-2.45,2.32l-3.21,3.83c-.37.51-.71.97-1.02,1.52-.29.47-.39.98-.42,1.52v1.44s.37,3.74.37,3.74c.08.49.17.96.31,1.46Z"/>
  <path class="st1" d="M394.08,256.25v.21s-.09.02-.08.09c0,.13-.07.2-.13.28-.15.16-.35.25-.59.31-1.42.18-2.77.48-4.15.87l-1.77.47c-.55.12-1.07-.12-1.34-.59-.22-.36-.32-.75-.37-1.16-.02-.05-.06-.08-.08-.08-.03.05-.07.08-.08.12-.17.21-.4.3-.68.37-1.35.17-2.64.45-3.93.82l-1.98.53c-.53.1-1.01-.13-1.29-.56-.18-.28-.28-.59-.35-.92-.07-.33-.07-.67-.1-1.02v-2.49s.62-11.26.62-11.26c.07-.4.13-.72.32-1.06.23-.41.65-.62,1.11-.55.49.02.97.11,1.38.37.34.21.52.58.45.98-.03.22-.09.42-.17.64l-.86,6.23-.34,3.84-.07,2.99c1.3-.28,2.54-.51,3.85-.53.43-.04.83-.01,1.23.08.41.11.76.38.87.83-.02.09.06.09.08.01v-2.5s.59-11.2.59-11.2c.06-.43.12-.83.34-1.2.21-.38.61-.59,1.05-.54.47.02.93.09,1.36.33.42.23.62.65.5,1.11l-.17.66-1.05,8.22-.23,4.56c0,.08.02.14.04.16.05.03.11.02.19,0,1.17-.25,2.32-.45,3.52-.49.45-.03.88-.04,1.3.06.47.1.84.42.95.91-.02.07.03.11.07.1Z"/>
  <path class="st1" d="M220.56,258v-1.6c.09.01.09-.07.08-.16-.02-.15.03-.27.07-.4l1.02-4.72,1.77-5.92c.3-.79.55-1.52.99-2.24.25-.43.53-.8.9-1.08.42-.34.95-.43,1.49-.27l1.36.45c.52.23.75.76.57,1.3-.06.21-.14.42-.17.64-.03.61.01,1.15.08,1.77.31,2.79.78,5.48,1.4,8.22l.61,2.41c.07.27.14.52.12.78-.03.47-.35.85-.84.92-.4.1-.77-.04-1.03-.36-.26-.29-.43-.64-.58-1.02-.27-.69-.45-1.36-.63-2.08-.03-.11-.03-.22-.16-.28-1.48.15-2.89.36-4.33.66l-.28,1.71c-.08.49-.19.96-.43,1.37-.18.31-.44.55-.81.64-.48.12-.91-.13-1.1-.57-.01-.09-.02-.17-.1-.16ZM227.07,252.06c.09-.05.06-.13.04-.22l-1.07-6.51c-.82,2.28-1.48,4.58-2.1,6.93l3.13-.2Z"/>
  <path class="st2" d="M378.82,223.9c-.72,1.5-1.44,2.85-2.33,4.19-.57.84-1.16,1.59-1.87,2.29-.52.48-1.04.9-1.66,1.22-.81.43-1.68.65-2.58.59-.62-.04-1.21-.16-1.82-.38-.81-.29-1.53-.69-2.24-1.19-.64-.45-1.18-.9-1.77-1.44-1.29-1.22-2.4-2.52-3.39-3.97-.77-1.13-1.38-2.29-1.85-3.57l-1.19-3.51-.95-3.43,4.13-13.19,1.97-6.63c-.14-.94-.24-1.8-.25-2.73-.01-.72.02-1.41.18-2.1.12-.5.29-.97.59-1.41.49-.72,1.28-1.13,2.13-1.16.5-.03.98.09,1.46.29.43.19.82.42,1.19.7l.65,1.36c.09.95.32,1.83.66,2.72l1.27,2.96,1.93,4.45c.67,1.68,1.18,3.36,1.61,5.15.4,1.83.61,3.61.57,5.46-.07,2.71-.63,5.31-1.73,7.82-.53,1.21-1.1,2.29-1.78,3.4-.08.1,0,.15.11.13.54-.04,1.01-.24,1.45-.55.36-.25.64-.54.94-.84.63-.66,1.14-1.38,1.61-2.15l2.01-3.74,1.58-3.31,1.82,6.61-2.42,5.96ZM367.72,218.89c.16-.2.25-.37.37-.57.49-.92.73-1.92.76-2.97.02-.9-.08-1.76-.22-2.64-.23-1.34-.56-2.61-.98-3.93l-1.71-4.88-.64,1.84-2.83,8.05c.81.36,1.53.76,2.19,1.35.42.39.74.8,1.09,1.24l1.81,2.51s.09.05.15,0Z"/>
  <path class="st2" d="M360.64,190.39l-2.33,5.94-4.06-.76,1.59-6.77c-.32-.99-.47-1.94-.51-2.94-.06-1.42.09-2.82.47-4.2.24-.84.55-1.63,1.02-2.36.35-.54.76-1.01,1.32-1.32.79-.46,1.73-.44,2.48.06.41.28.72.64.99,1.06.31.51.51,1.04.67,1.6.29,1.05.39,2.11.37,3.22,0,1.29-.2,2.52-.57,3.75-.22.7-.49,1.34-.86,1.94-.16.26-.33.49-.57.77Z"/>
  <path class="st1" d="M366.15,255.01l-2.16-1.85-.05,2.06v2.06c.02.19.02.37-.02.56-.09.39-.42.59-.81.56-.35-.05-.62-.26-.86-.5-.34-.32-.6-.71-.68-1.18l-.09-1.66v-2.32s.4-9.51.4-9.51l.22-2.18c.08-.47.4-.82.85-.97.39-.13.79-.17,1.2-.17,1.07-.06,2.07.18,3.04.67,1.09.58,2,1.34,2.79,2.29.41.55.73,1.11.9,1.77.28,1.04.16,2.1-.36,3.02-.19.36-.43.67-.69.97-.63.7-1.38,1.24-2.25,1.68-.68.37-1.38.58-2.1.86,1.19,1.17,2.35,2.16,3.62,3.13l1.59,1.23c.12.4,0,.78-.25,1.09-.32.44-.85.61-1.35.39-.37-.14-.7-.34-1.04-.56l-1.92-1.45ZM368.26,246.62c.32-.71.35-1.44.09-2.15-.19-.42-.46-.75-.82-1.03-.72-.58-1.56-.91-2.48-.95-.17-.02-.32-.03-.44.07l-.41,5.67c0,.39-.05.73,0,1.12,1.13-.09,2.19-.54,3.02-1.33.42-.41.78-.83,1.04-1.4Z"/>
  <path class="st1" d="M282.95,252.59c-.04-3.02.28-5.92.89-8.82.12-.44.25-.8.48-1.15.18-.24.41-.44.73-.52.39-.06.77.02,1.12.21.32.16.59.39.73.72.17.41.09.81-.22,1.1l-.83,5.23c-.15,1.44-.24,2.8-.19,4.24.03.81.11,1.58.3,2.34.08.27.17.55.38.77.12.18.32.22.49.1.35-.2.6-.5.85-.82.63-.86,1.1-1.78,1.46-2.79.2-.59.32-1.14.35-1.74l.72-7.91c.06-.41.07-.81.18-1.23.11-.49.49-.8.98-.82.59-.03,1.17.05,1.68.35.49.3.73.79.65,1.36-.04.21-.17.35-.31.49l-.82,4.86c-.22,1.86-.35,3.65-.35,5.52.02.63.04,1.23.15,1.82.08.43.21.83.4,1.23.08.22.04.46-.1.65-.23.36-.65.5-1.06.37-.31-.09-.54-.29-.74-.53-.34-.44-.54-.92-.73-1.49-.41.77-.87,1.48-1.56,2.03-.44.37-.96.58-1.53.55-.67-.03-1.27-.23-1.82-.58-.63-.41-1.13-.96-1.49-1.62-.29-.54-.48-1.1-.59-1.71-.13-.73-.17-1.41-.2-2.21Z"/>
  <path class="st1" d="M280.1,255.76c-.46.83-1.01,1.54-1.74,2.11-.99.79-2.21,1.1-3.47.86-.97-.18-1.85-.5-2.72-.99-.97-.59-1.68-1.38-2.17-2.36-.6-1.2-.86-2.5-.9-3.85-.02-1.71.32-3.36,1-4.97.44-1.05.94-1.98,1.6-2.87.47-.6.96-1.14,1.58-1.61.39-.3.81-.52,1.29-.62.47-.08.92,0,1.36.2.35.16.64.37.96.6,1.24.2,2.27.86,2.98,1.87.46.62.74,1.3.98,2.04.33,1.14.48,2.3.49,3.5.03.22.02.42,0,.64-.01,1.01-.12,1.97-.33,2.94-.19.87-.48,1.69-.9,2.5ZM276.42,256.22c.55-.36.94-.81,1.26-1.33.43-.7.71-1.47.91-2.28.23-.99.34-1.98.34-3.02.03-1.2-.1-2.36-.42-3.5-.16-.49-.34-.95-.67-1.37-.46-.62-1.18-.89-1.93-.74-.49.09-.9.34-1.28.66-.4.35-.69.74-.98,1.17-.64,1.04-1.14,2.12-1.5,3.3-.33,1.11-.51,2.2-.47,3.36.05.75.17,1.46.44,2.15.25.63.63,1.17,1.18,1.57.93.63,2.13.66,3.12.03Z"/>
  <path class="st1" d="M259.1,259.07c-.17-.02-.33-.07-.48-.16-.37-.17-.64-.5-.71-.92-.07-.36-.06-.68-.08-1.05-.05-3.56.11-7.07.41-10.62l.12-1.59c.05-.41.11-.81.3-1.19.18-.37.51-.64.93-.67.59,0,1.16.17,1.59.57.39.34.44.84.15,1.28-.16.26-.31.5-.37.8l-.22,1.42-.27,4.39c.37.02.69.02,1.04,0l3.27-.21.14-2.48.48-5.01c.11-.67.22-1.32.41-1.97.1-.33.21-.65.42-.94.21-.29.53-.41.89-.33.5.07.94.3,1.3.63.23.26.28.59.12.91-.09.2-.23.34-.36.5-.12.19-.17.39-.22.6-.16.66-.23,1.32-.31,2.03l-.3,5.83v3.04s.03,1.36.03,1.36c0,.49.05.95-.01,1.44-.03.39-.27.69-.63.76-.49.09-.98-.05-1.35-.4-.44-.36-.61-.91-.62-1.49l-.02-2.29-2.05.08-2.4.22c-.08,1.19-.05,2.33,0,3.51,0,.47.01.92-.14,1.36-.13.5-.61.75-1.07.6Z"/>
  <path class="st1" d="M358.19,252.73c-.65.02-1.2.16-1.79.29-.56.11-1.11.22-1.68.16-.64-.08-1.17-.48-1.35-1.1-.1-.33.02-.64.29-.81.34-.23.72-.36,1.13-.48.87-.25,1.74-.37,2.64-.4.57-.03,1.12-.03,1.68.11.55.13.96.49,1.18,1.01.3.61.37,1.27.17,1.92-.24.91-.65,1.73-1.16,2.5-.43.66-.92,1.23-1.54,1.73-.77.61-1.67.93-2.65.96-.56.03-1.08-.11-1.6-.33-.64-.32-1.25-.64-1.82-1.04-.76-.48-1.27-1.19-1.5-2.05-.21-.79-.29-1.58-.34-2.42-.05-1.96.17-3.86.66-5.74.26-.95.57-1.83,1-2.74.59-1.22,1.34-2.29,2.28-3.23.26-.23.51-.45.85-.57.32-.1.64-.02.95.14.53.3.98.65,1.45,1.01.46.27.88.59,1.26.98.38.37.7.75.99,1.17.12.18.23.37.31.59.14.34.07.71-.16.97-.21.19-.48.21-.74.05-.4-.31-.7-.68-1.01-1.05-.28-.33-.55-.65-.92-.89-.21-.16-.46-.16-.71-.04-.44.21-.78.53-1.1.89-.49.59-.84,1.23-1.19,1.92-.87,1.94-1.38,3.99-1.48,6.13-.01.92.04,1.77.27,2.63.08.31.19.61.37.9.21.34.54.51.91.54,1.01.03,1.95-.36,2.74-1.06.74-.65,1.23-1.45,1.56-2.36.03-.11.11-.21.03-.31Z"/>
  <path class="st1" d="M331.36,256.69c.17.13.33.23.44.38.24.26.19.64-.12.84-.44.32-.96.38-1.44.17-.34-.15-.63-.31-.98-.55-1.03.58-2.13.93-3.33.97-.54.03-1.06,0-1.6-.08-.96-.15-1.85-.49-2.65-1.04-.51-.36-.92-.8-1.18-1.37-.25-.51-.28-1.06-.09-1.61.17-.48.41-.9.7-1.3.4-.56.84-1.06,1.33-1.56l1.59-1.52c-.33-.83-.57-1.6-.73-2.42-.1-.58-.14-1.16-.04-1.74.1-.51.31-.99.7-1.36.65-.57,1.55-.71,2.37-.41.52.1.94.4,1.29.78.48.54.72,1.2.69,1.93-.02.59-.19,1.14-.45,1.68-.32.7-.71,1.29-1.17,1.92l.74,1.49c.23-.25.41-.41.67-.5.5-.2,1.02-.31,1.56-.39.8-.1,1.59-.14,2.4-.09.48.05.88.34,1,.84.16.43-.01.87-.4,1.06-.16.1-.34.15-.52.18-.34.07-.66.08-1.04.21.21.37.27.77.22,1.19-.07.65-.34,1.19-.68,1.75.25.23.47.36.72.54ZM326.48,246.64c.04-.36.07-.69-.01-1.04-.05-.17-.13-.32-.31-.37-.21.09-.29.26-.4.45-.35,1.01-.42,2.07-.05,3.15.42-.67.62-1.42.78-2.19ZM323.68,256.2c.3.2.62.26.96.3.99.04,1.99-.11,2.83-.62-.96-1.2-1.7-2.36-2.46-3.67-.54.65-1,1.35-1.42,2.1-.17.35-.33.67-.39,1.05,0,.34.18.63.47.84ZM329.48,253.79c0-.12-.03-.15-.11-.17-.37.1-.64-.08-.99-.15.2.45.46.72.72,1.06.22-.24.3-.45.39-.74Z"/>
  <path class="st1" d="M307.11,255.08c.01.29-.05.51.02.79l4.23-.51c.57-.05,1.11-.11,1.68-.07.34.03.66.09.94.27.22.16.36.4.36.64.02.28-.14.53-.4.69-.29.18-.62.24-.99.29-1.21.2-2.34.49-3.51.82-.84.24-1.63.46-2.48.61-.64.13-1.25-.07-1.7-.52-.45-.39-.7-.93-.69-1.54v-2.08s.02-1.04.02-1.04l.1-3.9.18-5.85c.01-.42.03-.81.17-1.2.1-.3.33-.5.65-.54.48-.11.95-.09,1.44-.11.87-.01,1.69.08,2.56.16l3.67.38c.32.09.55.3.6.59.05.27-.07.55-.35.73-.25.16-.53.24-.81.32-.63.15-1.26.21-1.92.26l-3.26.31-.23,3.44-.08,2.58,3.73-.26c.54-.02,1.07-.05,1.6.09.53.12.87.55.84,1.09.05.45-.27.79-.7.84l-2.06.18-3.49.49-.12,2.04Z"/>
  <path class="st1" d="M243.61,255.87l4.23-.51c.57-.06,1.11-.11,1.68-.07.36.03.7.09.97.29.22.18.34.42.32.69,0,.24-.16.47-.4.62-.27.16-.57.22-.9.28-1.2.2-2.34.49-3.51.81-.86.25-1.68.48-2.56.64-.46.08-.91.03-1.3-.21-.36-.22-.66-.51-.87-.89-.16-.28-.22-.57-.23-.88v-2.24s.02-1.04.02-1.04l.1-3.9.18-5.85c.01-.39.04-.76.16-1.12.11-.29.33-.5.65-.54.48-.11.95-.09,1.44-.11.87-.02,1.69.08,2.56.16l3.68.38c.32.09.55.3.6.59.05.27-.07.56-.36.73-.25.17-.52.24-.8.31-.66.15-1.31.22-1.97.27l-3.2.3-.23,3.5-.07,2.52,3.73-.26c.54-.02,1.07-.05,1.6.09.53.12.86.55.84,1.09.04.45-.27.8-.7.84l-.96.07-4.59.61-.12,2c.02.25-.05.44.01.83Z"/>
  <path class="st1" d="M302.52,257.76c-.36.38-.79.6-1.26.75-.51.15-1.04.21-1.58.2-.87-.03-1.68-.2-2.48-.54-1-.43-1.88-1.01-2.66-1.75-.43-.43-.82-.87-1.02-1.46-.21-.48-.13-1,.25-1.36.24-.23.56-.29.87-.18.21.12.36.29.49.48.29.48.62.89,1.04,1.28.95.86,2.16,1.27,3.42,1.17.3-.06.54-.21.57-.52-.2-.39-.48-.69-.78-.98-.46-.46-.95-.84-1.47-1.25-.39-.29-.75-.56-1.11-.9-.76-.64-1.28-1.44-1.56-2.37-.35-1.12-.37-2.29-.12-3.46.28-1.26.77-2.41,1.45-3.49.34-.51.69-.95,1.15-1.34.29-.23.6-.4.99-.41.13.02.23.06.34.1.61-.01,1.17.21,1.63.62.35.31.67.64.99,1l1.37.87c.23.17.44.35.62.58.22.28.36.59.39.96-.13.69-.86,1.08-1.51.81-.25-.12-.43-.28-.62-.44-.39-.39-.7-.83-.99-1.31-.17-.23-.42-.34-.71-.26-.42.09-.74.35-1.02.65-.35.37-.59.79-.81,1.26-.49,1.03-.67,2.14-.52,3.28.07.59.27,1.1.59,1.6.49.76,1.08,1.4,1.77,1.99l1.37,1.04c.38.3.74.59,1.02.97.57.73.55,1.72-.12,2.41Z"/>
  <path class="st1" d="M240.92,256.48c.02.27-.12.49-.35.63-.18.1-.36.14-.57.18-1.39.16-2.71.42-4.08.77l-2,.48c-.56.09-1.07-.17-1.35-.64-.22-.37-.33-.78-.37-1.2l-.03-2.87c.07-3.51.29-6.96.64-10.46.07-.37.13-.67.31-.98.23-.44.7-.64,1.19-.56.48,0,.93.1,1.36.31.22.14.42.31.49.57.05.34,0,.64-.16.97l-1.04,7.11-.28,3.92c0,.4-.06.77,0,1.17,1.43-.28,2.78-.49,4.19-.51.41,0,.81,0,1.2.12.46.14.77.51.84.98Z"/>
  <path class="st1" d="M374.69,257.56c.08.46-.21.77-.62.85-.38.06-.74,0-1.09-.11-.41-.15-.72-.46-.86-.88-.08-.22-.1-.46-.12-.71l.07-4.17.54-8.94c.08-.74.17-1.39.38-2.07.11-.29.22-.59.42-.83.28-.36.75-.48,1.15-.27.33.16.62.39.86.68.19.23.26.5.22.81l-.61,4.8-.45,7.61-.03,1.18v1.52s.13.52.13.52Z"/>
  
  
  
  
  
  
  
  
  
</svg>