<?xml version="1.0" encoding="UTF-8"?>
<svg id="Layer_1" data-name="Layer 1" xmlns="http://www.w3.org/2000/svg" viewBox="0 0 792.25 612.25">
  <defs>
    <style>
.cls-2 {
        fill: #ffd54f;
      }

      .cls-2, .cls-3 {
        fill-rule: evenodd;
      }

      .cls-4 {
        fill: #10b981;
      }
    </style>
  </defs>
  <g>
    <rect class="cls-4" x="597.58" y="243.19" width="38.32" height="52.03"/>
    <rect class="cls-4" x="607.12" y="265.45" width="49.61" height="34.98"/>
    <rect class="cls-4" x="547.33" y="192.94" width="42.61" height="36.89"/>
    <rect class="cls-4" x="514.9" y="211.39" width="101.12" height="75.4"/>
    <rect class="cls-4" x="489.45" y="280.08" width="178.72" height="40.71"/>
  </g>
  <rect class="cls-4" x="447.39" y="387.22" width="137.8" height="32.66"/>
  <path class="cls-3" d="M135.49,289.98l1.21,6.33c1.72-.53,3.45-1.02,5.2-1.46,5.77-1.47,11.49-2.58,17.35-3.43,5.33-.77,10.77-1.26,16.16-1.36,3.33-.06,6.7.06,10.01.42,1.41.15,2.82.36,4.21.63,1.41.27,2.81.6,4.19,1.01,1.55.46,3.06,1.03,4.51,1.73,1.21.58,2.37,1.27,3.46,2.07,1.21.89,2.3,1.93,3.24,3.1.92,1.16,1.67,2.45,2.21,3.83.59,1.5.96,3.08,1.11,4.68h0c.1,2.06-.14,4.11-.71,6.08-2.06,7-8.22,11.92-14.46,15.1-2.43,1.23-4.94,2.29-7.52,3.16-2.84.96-5.73,1.75-8.67,2.36-4.73.99-9.51,1.56-14.33,1.62-1.93.03-3.87-.06-5.79-.27-.17-.02-.28-.17-.27-.33,0-.02,0-.03,0-.05l9.57-35.88-11.94.31-19.04,73.52h11.29l8.25-30.93c.03-.13.15-.22.28-.22,1.38-.06,2.76-.12,4.14-.19,1.36-.07,2.73-.14,4.09-.2,2.94-.15,5.89-.23,8.84-.24,1.36,0,2.73.01,4.09.06,3.18.1,6,.33,9.05.8,2.69.42,5.41,1.07,7.96,2.03,3.42,1.3,6.58,3.24,8.85,6.16,1.47,1.89,2.49,4.14,3,6.48.27,1.21.43,2.44.48,3.68.06,1.33.02,2.67-.11,4h0c-.33,2.59-1.11,5.1-2.31,7.41-1.32,2.54-3.16,4.86-5.27,6.81-1.04.96-2.14,1.86-3.3,2.68-1.26.9-2.58,1.73-3.93,2.48-2.78,1.54-5.81,2.88-8.83,3.96-1.5.54-3.01,1.03-4.53,1.49-4.99,1.48-10.63,2.68-15.88,3.5-3.72.58-7.47,1.06-11.22,1.43-4.19.41-8.39.73-12.59.97l-.13,6.28c3.6-.03,7.21-.1,10.81-.23,4.06-.14,8.12-.41,12.17-.79,6.09-.58,12.29-1.55,18.21-3.07,2.28-.59,4.53-1.28,6.75-2.07,1.6-.57,3.19-1.21,4.74-1.91,5.35-2.41,10.3-5.61,14.42-9.81,4.18-4.26,7.25-9.32,9.24-14.91.74-2.06,1.33-4.17,1.79-6.32.08-1.39.08-2.78,0-4.17-.1-1.57-.34-3.12-.71-4.65-.81-3.23-2.38-6.19-4.71-8.55-1.14-1.15-2.42-2.16-3.81-2.99-1.52-.91-3.13-1.67-4.8-2.26-1.67-.59-3.38-1.05-5.12-1.39-1.89-.37-3.79-.64-5.71-.8-.04,0-.08-.01-.11-.03-.3-.15-.58-.33-.85-.54-.15-.12-.29-.25-.41-.41-.16-.2-.25-.49-.22-.74.04-.24.14-.46.29-.64.14-.17.29-.32.46-.46.33-.26.67-.5,1.03-.72.02-.01.04-.02.07-.03,2.74-.84,5.44-1.8,8.09-2.89,1.43-.59,2.84-1.24,4.23-1.93,2.86-1.43,5.69-3.2,8.09-5.33,2.53-2.24,4.54-4.92,5.67-8.13.29-.83.52-1.69.69-2.56.18-.96.29-1.94.33-2.91-.02-1.28-.11-2.56-.29-3.82-.19-1.43-.51-2.83-.93-4.21-.43-1.38-1-2.71-1.69-3.98-.78-1.41-1.71-2.72-2.79-3.92-1.01-1.11-2.12-2.11-3.33-3-1.33-.98-2.75-1.83-4.23-2.55-1.49-.72-3.03-1.35-4.6-1.86-1.73-.56-3.49-1.02-5.27-1.38-2.01-.41-4.03-.72-6.07-.93-2.23-.23-4.48-.38-6.72-.44-2.24-.06-4.48-.05-6.72.03-4.85.16-9.7.59-14.52,1.19-8.63,1.08-16.91,2.66-25.42,4.48ZM439.87,349.46c.59.98,1.11,2.01,1.53,3.07.47,1.17.84,2.37,1.12,3.6.58,2.52.82,5.23.75,7.84-.07,2.75-.42,5.48-1.04,8.16-1.34,5.86-3.86,11.65-7.54,16.46-1.5,1.96-3.25,3.78-5.22,5.28-.76.58-1.56,1.11-2.39,1.59-1.07.62-2.17,1.18-3.29,1.69-.64.29-1.29.53-1.96.73-.37.11-.75.2-1.13.26-.45.08-.92.09-1.37.04-.96-.11-1.69-.68-2.03-1.59-.11-.3-.19-.62-.23-.94-.09-.64-.07-1.37,0-2.04.07-.7.18-1.39.34-2.08l4.81-22.6,7.01-27.25c.04-.16.21-.26.37-.22,0,0,.01,0,.02,0,2,.64,3.88,1.57,5.56,2.82,1.89,1.4,3.48,3.15,4.69,5.16ZM562.02,331.97c1.06.37,2.09.82,3.07,1.36.99.55,1.92,1.2,2.78,1.95.96.84,1.79,1.82,2.48,2.89.63.99,1.13,2.06,1.48,3.18.39,1.23.62,2.51.69,3.8.07,1.29.02,2.59-.16,3.87-.2,1.4-.51,2.78-.95,4.13-.92,2.87-2.28,5.56-3.97,8.05-1.85,2.73-4.1,5.18-6.67,7.25-1.17.94-2.41,1.8-3.71,2.54-2.89,1.67-6.07,2.77-9.4,3.04-1.81.15-3.64.03-5.42-.35,0,0-.02,0-.03,0-.93-.29-1.84-.64-2.73-1.05-2.05-.93-3.88-2.15-5.43-3.75-2.62-2.7-3.97-6.18-4.13-9.92-.05-1.27.02-2.54.21-3.79.21-1.37.53-2.73.97-4.04.9-2.72,2.22-5.28,3.85-7.63,2.6-3.75,6.03-7.02,9.97-9.3,2.77-1.6,5.8-2.69,8.98-3.08,1.74-.21,3.5-.19,5.23.05,0,0,.01,0,.02,0,.97.21,1.92.48,2.85.8ZM357.04,350.61c.19-1.54.46-3.07.8-4.59.34-1.49.73-2.98,1.18-4.44,1.37-4.48,3.28-9.1,5.41-13.34,1.53-3.06,3.21-6.05,5.02-8.95.02-.03.04-.05.07-.08,0-.02,0-.04,0-.06.01-.2.04-.4.08-.6.04-.23.15-.45.31-.63,1.49-2.78,3.08-5.51,4.76-8.18.91-1.45,1.87-2.86,2.86-4.26,1.12-1.58,2.32-3.1,3.58-4.57,1.05-1.21,2.16-2.36,3.35-3.43.64-.58,1.31-1.12,2-1.63,1.45-1.07,3.03-1.96,4.74-2.53.88-.29,1.8-.47,2.72-.53,1.94-.13,3.87.32,5.58,1.22.03.01.05.03.07.05.8.77,1.46,1.67,1.96,2.67h0c.54,1.11.88,2.3,1,3.53.12,1.22.05,2.52-.15,3.74-.23,1.33-.57,2.64-1.04,3.9-.45,1.25-.98,2.48-1.57,3.67-1.28,2.57-2.79,5-4.43,7.35-.89,1.27-1.81,2.52-2.77,3.74-2.04,2.6-4.18,5.11-6.41,7.53-2.46,2.67-5.01,5.26-7.64,7.77-5.29,5.05-11.55,10.43-17.54,14.71-1.22.87-2.47,1.7-3.76,2.49-.14.09-.33.04-.41-.1-.03-.05-.04-.1-.04-.16,0-1.43.1-2.86.28-4.28ZM300.53,350.71c.19-1.54.46-3.07.8-4.59.34-1.49.73-2.98,1.18-4.44,1.37-4.48,3.28-9.1,5.41-13.34,1.53-3.06,3.21-6.05,5.02-8.95.02-.03.04-.05.07-.08,0-.02,0-.04,0-.06.01-.2.04-.4.08-.6.04-.23.15-.45.31-.63,1.49-2.78,3.08-5.51,4.76-8.18.91-1.45,1.87-2.86,2.86-4.26,1.12-1.58,2.32-3.1,3.58-4.57,1.05-1.21,2.16-2.36,3.35-3.43.64-.58,1.31-1.12,2-1.63,1.45-1.07,3.03-1.96,4.74-2.53.88-.29,1.8-.47,2.72-.53,1.94-.13,3.87.32,5.58,1.22.03.01.05.03.07.05.8.77,1.46,1.67,1.96,2.67h0c.54,1.11.88,2.3,1,3.53.12,1.22.05,2.52-.15,3.74-.23,1.33-.57,2.64-1.04,3.9-.45,1.25-.98,2.48-1.57,3.67-1.28,2.57-2.79,5-4.43,7.35-.89,1.27-1.81,2.52-2.77,3.74-2.04,2.6-4.18,5.11-6.41,7.53-2.46,2.67-5.01,5.26-7.64,7.77-5.29,5.05-11.55,10.43-17.54,14.71-1.22.87-2.47,1.7-3.76,2.49-.14.09-.33.04-.41-.1-.03-.05-.04-.1-.04-.16,0-1.43.1-2.86.28-4.28ZM230.65,327.11l-9.53,34.01c-.21.78-.39,1.57-.54,2.36-.17.89-.3,1.78-.38,2.68-.08.9-.09,1.81-.03,2.72.06,1.01.26,2,.58,2.96.56,1.66,1.61,3.11,3.01,4.16.74.55,1.54,1.01,2.39,1.37.92.39,1.87.69,2.85.91.83.14,1.67.19,2.51.16,2.84-.1,5.61-1.08,8.11-2.38.83-.43,1.63-.89,2.42-1.39.86-.54,1.69-1.1,2.51-1.7,3.23-2.35,6.32-5.13,9.16-7.94,4.5-4.47,8.89-9.53,12.89-14.44.1-.13.29-.15.42-.04.1.08.14.22.09.34-1.13,3.16-2.04,5.93-2.91,9.04-.46,1.67-.86,3.37-1.18,5.08-.17.92-.3,1.85-.41,2.78-.12,1.05-.16,2.11-.12,3.17h0c.02,1.65.32,3.34,1.33,4.69.37.49.83.92,1.35,1.25.51.33,1.06.58,1.64.76.63.19,1.29.33,1.95.39.66.07,1.33.09,1.99.07.71-.02,1.42-.08,2.13-.16,1.64-.52,3.24-1.19,4.77-1.98,1.7-.88,3.33-1.87,4.9-2.96,1.58-1.1,3.11-2.26,4.59-3.47,1.63-1.34,3.24-2.72,4.82-4.12.12-.11.31-.1.43.02.03.03.05.07.06.12.41,1.4.94,2.76,1.58,4.06.71,1.45,1.6,2.8,2.66,4.02,2.22,2.55,5.09,4.23,8.29,5.19,0,0,.01,0,.02,0,1.51.58,3.17.93,4.8,1.07,1.72.15,3.63.12,5.4-.07,1.79-.19,3.57-.48,5.32-.88,3.74-.85,7.35-2.04,10.91-3.46,3.85-1.54,7.62-3.34,11.27-5.33,2.12-1.15,4.19-2.39,6.21-3.7.14-.09.33-.05.42.09.01.02.02.04.03.07.44,1.29.99,2.53,1.64,3.73.72,1.32,1.61,2.54,2.64,3.64,1.02,1.08,2.17,2.02,3.44,2.78,1.39.83,2.87,1.49,4.42,1.95,0,0,.01,0,.02,0,.89.34,1.82.57,2.77.7,2.07.27,4.17.19,6.24-.09,1.12-.15,2.24-.35,3.35-.59,2.09-.46,4.15-1.03,6.17-1.7,4.33-1.44,8.49-3.16,12.62-5.11,5.76-2.72,11.76-6,17.19-9.4,1.43-.89,2.83-1.82,4.22-2.78.14-.09.32-.06.42.08.05.07.07.16.04.25l-6.7,26.26c-.19,1.09-.35,2.18-.47,3.27-.14,1.24-.22,2.5-.24,3.75-.02,1.28.06,2.57.24,3.84.1.68.24,1.35.43,2.02.21.75.48,1.47.83,2.16,1.44,2.87,3.96,4.32,7.16,4.43,2.1.07,4.25-.39,6.22-1.08,1.88-.65,3.88-1.59,5.65-2.61,5.81-3.34,11.24-8.22,15.5-13.5,2.79-3.46,5.19-7.21,6.97-11.28.44-1.01.84-2.03,1.18-3.08.39-1.16.71-2.34.96-3.53.25-1.19.42-2.4.51-3.62.1-1.35.07-2.7-.07-4.04h0c-.3-3.28-.99-6.5-2.06-9.6-.57-1.64-1.23-3.24-1.99-4.79-.84-1.72-1.79-3.38-2.83-4.99-.09-.14-.05-.33.09-.42.07-.05.16-.06.24-.04,4.14,1.14,8.62,1.94,12.93,1.77,3.08-.12,6.11-.78,8.83-2.26,1.34-.73,2.57-1.65,3.65-2.73,1.08-1.08,2.02-2.29,2.8-3.59.85-1.42,1.55-2.92,2.1-4.48.04-.12.16-.2.28-.2h28.48c.17,0,.3.13.3.3,0,.1-.05.19-.13.25l-36.44,24.46c-.83,1-1.58,2.07-2.23,3.19-.35.6-.66,1.23-.93,1.87-.3.72-.54,1.46-.71,2.22-.31,1.39-.35,2.83-.09,4.24.14.74.35,1.45.63,2.15.31.76.69,1.48,1.13,2.17,1.21,1.49,2.67,2.76,4.31,3.76.87.53,1.78.98,2.72,1.36,5.25,2.11,11.44,2.07,16.93,1.22,2.4-.37,4.77-.89,7.1-1.56,5.16-1.47,10.3-3.56,15.05-6.16,1.29-.71,2.56-1.46,3.8-2.26,1.4-.9,2.75-1.86,4.05-2.9.13-.1.32-.08.42.05.01.02.03.04.04.06,2.27,4.83,6.28,8.27,11.03,10.56,1.02.49,2.06.93,3.12,1.32,2.19.79,4.45,1.41,6.74,1.84,3.41.48,6.86.46,10.26-.06,3.82-.59,7.52-1.83,10.92-3.67,3.52-1.9,6.68-4.38,9.37-7.33,3.03-3.33,5.4-7.15,6.95-11.35,2.56-6.94,2.62-14.81-1.41-21.18-.96-1.52-2.12-2.9-3.44-4.12-1.44-1.32-3.04-2.47-4.75-3.4-1.71-.93-3.5-1.7-5.35-2.3-1.91-.62-3.86-1.09-5.84-1.42-.06.09-.17.13-.27.12-4.29-.44-8.63-.1-12.81,1-7.02,1.87-13.35,5.86-18.16,11.3-1.76,1.99-3.29,4.17-4.57,6.49-2.69,4.9-4.19,10.58-3.51,16.18.02.13-.05.25-.17.31-.92.44-1.83.9-2.72,1.39-.97.54-1.93,1.08-2.89,1.63-6.33,3.64-12.5,7.02-19.84,8.04-3.22.45-6.48.35-9.66-.31-.6-.12-1.2-.29-1.77-.51-2.09-.78-3.85-2.29-4.44-4.52-.19-.72-.26-1.46-.2-2.2.06-.79.22-1.57.49-2.32.26-.74.59-1.45.99-2.12.42-.72.9-1.41,1.43-2.07.56-.7,1.16-1.37,1.79-2.01.68-.69,1.38-1.36,2.11-2,1.5-1.31,3.06-2.55,4.68-3.7,1.57-1.13,3.17-2.2,4.81-3.22,5.01-3.13,10.5-6,15.94-8.45,1.9-.86,3.82-1.67,5.75-2.43,2.12-.84,4.26-1.62,6.42-2.32l.23-5.47-38.41.25c-.12,0-.24-.07-.28-.19-.35-.89-.63-1.82-.82-2.76-.22-1.06-.31-2.14-.27-3.22.03-1.09.19-2.17.48-3.22.31-1.15.74-2.27,1.28-3.34.38-.75.78-1.5,1.19-2.23.23-.41.44-.82.64-1.25.15-.32.42-.96.27-1.33-.06-.14-.16-.25-.29-.33-.18-.11-.37-.19-.57-.24-.46-.12-.93-.21-1.41-.25-.49-.05-.98-.08-1.48-.1-.52-.02-1.05-.04-1.57-.04-1.66-.03-3.28.33-4.64,1.26-1.13.78-1.96,1.83-2.59,3.02-.24.45-.45.92-.64,1.4-.38,1-.69,2.03-.91,3.07-.24,1.15-.43,2.31-.56,3.48-.13,1.17-.23,2.35-.3,3.53-.08,1.31-.14,2.63-.19,3.94,0,.02,0,.03,0,.05-.13.6-.29,1.18-.49,1.76-.23.65-.51,1.28-.85,1.88-1.54,2.76-4.09,4.32-7.07,4.96-1.56.33-3.23.44-4.85.38-.84-.03-1.69-.1-2.53-.2-.92-.11-1.83-.25-2.73-.43-1.87-.37-3.73-.83-5.56-1.38-1.8-.54-3.58-1.14-5.34-1.8-1.93-.72-3.85-1.5-5.74-2.32-.03-.01-.06-.03-.09-.06-1.11-1.05-2.24-2.08-3.4-3.08-.09-.07-.12-.19-.1-.3l10.06-39.15h-10.12l-9.18,35.96c-.04.16-.21.26-.37.22-.02,0-.05-.01-.07-.03-2.77-1.47-5.52-2.97-8.25-4.51-1.02-.57-2.04-1.14-3.06-1.7v9.28c1.54.62,3.06,1.28,4.56,1.98,1.67.77,3.34,1.54,5,2.33.13.06.2.21.16.35l-5.43,21.28c-.02.08-.07.14-.13.18-2.03,1.27-4.09,2.49-6.18,3.67-2.34,1.33-4.72,2.59-7.13,3.78-3.76,1.86-7.68,3.56-11.65,4.97-3.94,1.4-8.09,2.54-12.25,3.14-1.37.2-2.76.33-4.15.38-1.58.07-3.16,0-4.72-.19-1.29-.16-2.55-.44-3.78-.85-.66-.22-1.3-.48-1.92-.79-3.64-1.79-5.85-4.85-6.64-8.73-.03-.13.04-.26.15-.33,3.2-1.71,6.56-3.74,9.65-5.8,3.4-2.27,6.71-4.68,9.93-7.21,6.71-5.29,13.04-11.04,18.94-17.21,1.26-1.39,2.5-2.81,3.71-4.25,1.33-1.58,2.6-3.2,3.82-4.86,1.21-1.65,2.34-3.36,3.37-5.13.54-.93,1.04-1.89,1.51-2.86.52-1.08.97-2.19,1.36-3.32,1.48-4.31,1.76-8.82-.24-13.04-.82-1.74-1.97-3.31-3.3-4.69-.71-.74-1.47-1.43-2.27-2.07-2.95-1.06-6.08-1.47-9.2-1.22-3.41.29-6.7,1.4-9.59,3.23-2.24,1.42-4.42,2.92-6.54,4.51-7.42,5.58-13.97,12.29-19.19,19.97-5.6,8.24-9.6,17.6-11.29,27.44-.31,1.82-.54,3.65-.68,5.48-.16,2.05-.2,4.1-.14,6.15.06,1.06.16,2.12.27,3.18.13,1.18.3,2.35.52,3.51.02.13-.04.27-.16.33-1.74.85-3.5,1.66-5.27,2.45-2,.89-4.02,1.72-6.06,2.5-3.21,1.23-6.54,2.32-9.89,3.14-3.26.8-6.69,1.36-10.06,1.37-1.1,0-2.19-.06-3.28-.19-1.24-.15-2.46-.42-3.64-.82-1-.33-1.97-.78-2.87-1.33-1.02-.61-1.94-1.37-2.73-2.25-.8-.88-1.47-1.87-2-2.94-.58-1.17-1.01-2.4-1.29-3.67-.03-.13.03-.27.15-.33,3.2-1.71,6.56-3.74,9.65-5.8,3.4-2.27,6.71-4.68,9.93-7.21,6.71-5.29,13.04-11.04,18.94-17.21,1.26-1.39,2.5-2.81,3.71-4.25,1.33-1.58,2.6-3.2,3.82-4.86,1.21-1.65,2.34-3.36,3.37-5.13.54-.93,1.04-1.89,1.51-2.86.52-1.08.97-2.19,1.36-3.32,1.48-4.31,1.76-8.82-.24-13.04-.82-1.74-1.97-3.31-3.3-4.69-.71-.74-1.47-1.43-2.27-2.07-2.95-1.06-6.08-1.47-9.2-1.22-3.41.29-6.7,1.4-9.59,3.23-2.24,1.42-4.42,2.92-6.54,4.51-7.42,5.58-13.97,12.29-19.19,19.97-5.6,8.24-9.6,17.6-11.29,27.44-.31,1.82-.54,3.65-.68,5.48-.16,2.05-.2,4.1-.14,6.15.1,1.62.26,3.24.49,4.85.01.09-.01.18-.07.24-.89,1.01-1.83,1.96-2.82,2.86-1.09.99-2.24,1.91-3.44,2.76-1.19.85-2.42,1.64-3.68,2.37-1.38.8-2.78,1.54-4.22,2.22-.35.19-.71.36-1.08.52-.42.19-.86.35-1.3.48-.46.14-.93.22-1.4.23-1.19.04-2.11-.53-2.56-1.63-.2-.49-.32-1.01-.35-1.53-.05-.52-.05-1.03-.02-1.55.03-.55.09-1.09.16-1.63l11.31-38.35-9.49.31c-2.71,6.13-5.79,12.33-9.18,18.15-1.33,2.29-2.74,4.54-4.22,6.74-1.34,2.01-2.77,3.96-4.28,5.85-.8,1.01-1.64,1.99-2.5,2.95-1.83,2.04-3.79,3.93-5.96,5.61-1.15.89-2.36,1.69-3.63,2.38-1.27.7-2.62,1.26-4.02,1.65-.74.21-1.5.36-2.26.45-.84.1-1.69.12-2.54.06-.52.02-1.05-.07-1.53-.26-1.8-.71-2.38-2.91-2.53-4.63-.06-.68-.08-1.35-.06-2.03.02-.73.06-1.45.14-2.18.15-1.47.37-2.94.66-4.39.37-1.87.79-3.73,1.28-5.57.53-2.01,1.1-4.02,1.71-6,1.31-4.28,2.84-8.75,4.37-13.02l.95-2.66.55-1.55c.18-.51.36-1.03.52-1.55l-9.13-.31ZM636.35,350.5c-1.33,1.96-2.76,3.85-4.29,5.66-1.35,1.6-2.79,3.12-4.32,4.54-2.49,2.33-5.41,4.47-8.42,6-1.1.56-2.23,1.05-3.39,1.47-2.45.89-5.02,1.4-7.62,1.52h0c-.59,0-1.17-.02-1.76-.08-2.1-.22-4.1-.96-5.69-2.39-1.07-.97-1.9-2.22-2.43-3.57-1.87-4.76-.7-10.73,1.37-15.25.78-1.71,1.73-3.33,2.84-4.85,1.22-1.68,2.67-3.19,4.28-4.49,1.08-.86,2.21-1.66,3.38-2.38,4.17-2.56,8.7-4.03,13.57-4.53,1.59-.17,3.19-.24,4.8-.22,1.76.02,3.52.12,5.27.31,1.75.18,3.49.42,5.22.72,1.9.33,3.8.69,5.68,1.1.16.03.27.19.23.36,0,.02-.01.04-.02.06-1.58,3.64-3.36,7.2-5.33,10.65-1.05,1.84-2.18,3.63-3.37,5.38ZM652.79,327.27c-1.89-.09-3.77-.19-5.66-.31-1.8-.11-3.61-.22-5.41-.32-1.97-.11-3.94-.19-5.92-.25-2.17-.07-4.35-.07-6.53-.02-1.91.04-3.81.15-5.71.33-2.1.19-4.2.5-6.27.91-2.06.41-4.08.98-6.06,1.69-2.18.78-4.27,1.79-6.24,3.01-4.42,2.75-8.39,6.45-11.52,10.65-.8,1.07-1.54,2.18-2.22,3.32-.76,1.27-1.44,2.59-2.04,3.95-.6,1.37-1.1,2.78-1.49,4.23-.44,1.61-.69,3.27-.77,4.94-.04,1.06.01,2.12.16,3.17.17,1.16.48,2.3.92,3.38.44,1.07,1.02,2.07,1.73,2.99.78,1,1.69,1.88,2.72,2.63.98.71,2.03,1.32,3.14,1.81,1.2.53,2.45.96,3.72,1.28,1.26.31,2.54.55,3.83.71,1.39.17,2.79.26,4.19.29,2.45-.14,4.86-.61,7.18-1.42,1.23-.43,2.43-.93,3.59-1.51,2.48-1.24,4.84-2.76,7.08-4.39,1.19-.87,2.37-1.76,3.53-2.68,1.05-.83,2.1-1.66,3.14-2.5,1.36-1.1,2.73-2.18,4.11-3.26.13-.1.32-.08.42.05.05.06.07.14.06.22-.65,5.17-2.04,10.22-4.15,14.99-1.09,2.47-2.35,4.85-3.78,7.14-1.55,2.49-3.26,4.87-5.12,7.13h0c-.49.55-1.01,1.07-1.55,1.57-1.77,1.61-3.7,3.01-5.77,4.21-3.46,2.01-8.49,4.03-12.6,2.68-2.55-.84-4.18-2.85-5.11-5.24-.46-1.17-.76-2.38-.97-3.62h-11.09c1.06,3.64,2.78,7.09,5.53,9.74,2.32,2.23,5.19,3.66,8.31,4.31,6.35,1.32,13.35-.42,19.11-3.04,2.58-1.17,5.05-2.56,7.39-4.16,1.24-.84,2.44-1.74,3.59-2.7,1.28-1.06,2.5-2.19,3.65-3.39,1.31-2.03,2.5-4.14,3.57-6.3,1.18-2.37,2.25-4.8,3.22-7.26.96-2.44,1.85-4.91,2.66-7.41,1.69-5.19,3.12-10.48,4.37-15.79,1.27-5.38,2.45-11.21,3.47-16.76.55-3,1.08-6.01,1.58-9.02ZM561.06,397.8h7.31c1.94,0,3.18-.03,3.73-.1.54-.07.99-.24,1.33-.52.51-.42.76-1.46.76-3.11,0-1.42-.24-2.34-.71-2.76-.31-.28-.79-.46-1.44-.54-.65-.08-1.88-.12-3.68-.12h-7.31v7.16ZM521.63,402.21l-4.64-10.42h-.8l-4.71,10.42h10.15ZM459.54,405.12h7.91c1.56,0,2.66-.05,3.3-.16.64-.1,1.11-.31,1.41-.61.38-.4.58-1.21.58-2.41,0-1.29-.22-2.12-.65-2.5-.3-.28-.64-.44-1.03-.5-.39-.05-1.59-.1-3.61-.14h-7.91v6.31ZM459.54,396.6h7.91c1.33,0,2.23-.03,2.72-.09.49-.06.87-.19,1.13-.38.56-.4.84-1.22.84-2.46s-.19-1.96-.58-2.34c-.25-.24-.56-.39-.93-.44-.37-.06-1.44-.1-3.19-.15h-7.91v5.86ZM616.62,284.18c10.98-1.14,17.4,2.54,19.28,11.04.61,10.54-12.64,10.55-19.68,8.63-1.82-1-.92-2.36.84-2.86,6.52-2.42,5.29-11.79-1.04-14.21-1.17-1.04-1.35-1.96.6-2.61ZM457.55,407.32v-18.79h9.9c1.81.04,2.93.08,3.39.12,1.41.15,2.39.84,2.93,2.08.28.63.41,1.5.41,2.62,0,1.22-.13,2.13-.4,2.72-.27.6-.75,1.05-1.44,1.36.89.18,1.51.62,1.88,1.3.37.68.55,1.76.55,3.24,0,1.87-.27,3.17-.82,3.88-.32.41-.72.72-1.2.91-.48.19-1.21.33-2.17.43-.82.08-1.86.12-3.12.12h-9.9ZM524.35,408.38l-1.77-3.97h-12.06l-1.78,3.97h-2.25l8.46-18.79h3.18l8.43,18.79h-2.21ZM559.07,407.23v-18.79h9.3c2.52.04,4.13.11,4.83.23,1.23.2,2.08.9,2.55,2.09.31.8.47,1.91.47,3.35,0,1.08-.05,1.91-.14,2.47-.09.56-.26,1.01-.5,1.35-.38.55-.99.93-1.81,1.15.64.14,1.15.45,1.53.93.28.39.47.85.55,1.38.08.53.12,1.59.12,3.17v2.67h-1.99v-1.8c0-1.53-.03-2.59-.08-3.18-.15-1.19-.68-1.89-1.6-2.1-.37-.06-.69-.1-.98-.12-.29-.01-1.27-.02-2.95-.03h-7.31v7.23h-1.99ZM593.14,236.19c-12.95-8.11-26.69-16.07-40.07-19.79,2.13-4.11,4.69-7.9,7.8-11.28,2.54-2.58,6.14-2.14,9.21-.03l19.71,13.44c2.62,2.38,3.42,5.21,3.21,10.54l.15,7.12ZM552.85,216.83l-1.11,2.29c.36-.77.72-1.54,1.11-2.29ZM540.97,227.91c1.79.19,3.56.45,5.33.78,3.64.68,7.22,1.68,10.67,3,3.45,1.32,6.76,2.95,9.91,4.86,2.86,1.75,5.6,3.7,8.17,5.84-.07,0-.13.02-.2.03-3.77,2.6-7.69,3.52-11.85,2.01-4.75-1.52-6.13-5.2-5.42-10.24.28-.92-.77-1.48-1.81-1-6.29,2.19-10.23,5.18-12.85-2.63-5.27,3.25-9.82,6.45-8.97,9.86,12.66,1.02,25.13,7.71,37.48,16.28l.66,1.44c-.68,4.3,3.25,2.99,6.05,2.97,4.33.17,3.68-.73,4.74,2.51.26.81.86,1.37,1.8,1.7,3.67.5,9.56,8.18,1.08,8.43h-5.09c-3.86.34.86,4.15,2.09,5.49,3.88,4.21,8.52,7.26,14.14,8.8,6.9,1.88,5.88,1.97,1.91,8.94-9.05,15.89-23.68,13.92-42.45,13.92-8.88-.59-16.16-3.46-19.28-12.25-5.61-15.2-6.33-28.18-.55-31.22.51-.27.97-.54,1.38-.8-10,5.33-9.04,7.05-9.03,11.79-12.03,7.42-8.7,15.56-4.01,22.16l-1.15.56c-11.15-1.35-20.99-1.26-28.44,1.69-1.77.88-.54,1.25.4,1.54,5.22-.93,10.27-1.18,14.78.15,2.63.77,3.68,1.7,4.4,4.21,1.89,6.59,3.22,2.89,7.76-1.28,1.66-.98,3.11-.85,4.38-.47,1.84.56,4.97,3.08,7.13,4.85,2.61,2.15,2.3,1.87,5.38.55,8.18-3.52,16.01-.9,23.24,2.82,3.22,1.65,4.25,2.15,7.88,2.16l13.5-.27c4.42-.15,9.59-1.74,17.35-5.44,4.1-1.75,5.85,1.32,5.39,4.67.34,1.9,2.66.14,4.39-2.65,1.45-1.98,4.59-3.66,6.92-2.77,3.06,1.31,7.21,3.62,10.27,6.11,3.9,2.12.93-4.26,2.93-4.71,1.8-1.68,6.74-.79,10.18-1.11,2.48-.23,4.58-.73,4.38-3.18-.11-1.74-1.4-2.45-2.97-3.45-1.56-1.59-.94-3.81.04-5.79,3.88-8.74,3.43-15.43-2.61-23.18-1.64-2.16-4.56-5.96-6.93-6.83-2.47-.91-3.81,4.28-5.01,6.12-1.19,1.9-3.58,2.59-6.13,1.31-2.16-1.52-3.63-3.3-4.76-6.57-1.22-4.93-2.03-9.58-2.67-14.12-1.44-4.7-4.15-6.18-8.12-4.42-3.26.54-6.43.84-9.27-1.59l.04,2.05c-.3,1.77-4.18,2.51-4.47-.2-.09-.95-.27-1.81-.53-2.58-2.38-7.02-11.31-7.08-16.71-6.45-2.71-2.28-5.62-4.38-8.64-6.23-3.14-1.92-6.55-3.59-10.01-4.91-5.36-2.05-10.96-3.3-16.66-3.87-.83-.94-2.39-1.44-3.23-2.35-3.04-3.5,1.54-4.18,3.65-4.06l9.85.23-.03.05c14.5,4.49,28.01,12.75,42.5,20.74v.15c2.36,1.68,4.07,2.59,5.25,5.22,1.41,2.26,6.09,1.61,12.36,1.12,3.38.35,6.02,3.78,7.03,9.5.87,4.18.89,14.97,5.98,16.2,7.5,1.81,2.07-13.11,13.1-5.17,3.82,3.13,6.77,7.42,8.86,12.86,1.8,6.25,2.36,10.88-1.32,17.13-.73,1.54-1.58,4.4.4,5.61,4.35,1.85,3.38,4.75,1.11,6.91-4.64,4.42-15.41-3.11-13.56,5.84.44,7-9.09-1.26-9.7-1.67-1.55-1.03-7.67-5.35-10.55.33-.56,1.1-8.12,7.34-7.05.98,1.17-7.03-8.84-.27-11.38.29-4.96,1.1-8.76,1.52-13.84,1.46l-12.04-.15c-6.67-.08-4.82-1.12-9.85-3.66-4.93-2.49-13.52-3.56-17.48-.94-2.8,2.41-5.42,2.84-7.1.25-2.04-3.73-10.38-8.12-12.76-2.49-1.39,3.3-6.7,2.92-7.15.02-1.02-8.99-13.67-5.83-20.02-5.81-5.06-.18.43-4.55,2.62-5.14,6.98-1.88,13.13-3.64,25.07-1.54l-1.12-2.81c-5.23-5.58-1.71-12.96,4.11-17.98,3.56-3.07,1.98-1.75,2.1-5.07.15-4.27,3.25-6.3,8.7-8.22,1.32-.46,1.87-.62,2.66-1.86,4.36-6.82-6.03-16.71-6.47-21.52-.82-6.8,3.11-8.8,8-11.49,1.92-1.06,2.77-.76,1.73-2.38ZM108.97,295.54l1.32,6.94c1.33,6.97,5.15,13.22,10.76,17.57l-11.99,46.32c-1.85,7.14-.92,14.72,2.59,21.2-.07.34-.14.67-.21,1.01-.09.46-.18.93-.26,1.4-.08.47-.16.94-.23,1.41-.15,1.01-.25,2.01-.31,3.03-.03.52-.05,1.04-.07,1.56-.02.52-.04,1.03-.05,1.55l-.05,1.66c-.09,2.38,0,4.76.27,7.12v.04c.21,1.45.52,2.88.95,4.28.48,1.55,1.08,3.06,1.81,4.5,1.55,3.06,3.62,5.83,6.11,8.18,1.18,1.11,2.44,2.13,3.78,3.04,1.48,1.01,3.05,1.87,4.7,2.59,1.63.71,3.33,1.27,5.08,1.66,1.92.43,3.88.64,5.85.64l12.77-.26c1.35-.05,2.71-.11,4.06-.18,1.5-.08,2.99-.17,4.48-.28,6.28-.45,12.57-1.16,18.77-2.29,1.63-.29,3.25-.62,4.87-.97,1.79-.39,3.57-.83,5.34-1.3,1.42-.38,2.83-.79,4.24-1.22,1.55-.48,3.1-1,4.62-1.56,1.53-.56,3.04-1.15,4.54-1.79,3.15-1.33,6.22-2.85,9.19-4.55,4.74-2.72,9.15-5.91,13.19-9.59l3.68.63c.93.13,1.86.21,2.79.26,1.03.05,2.06.06,3.09.03,1.03-.03,2.05-.1,3.07-.21,1.12-.12,2.24-.28,3.36-.49,2.13-.39,4.24-.93,6.3-1.6,2.21-.72,4.34-1.59,6.41-2.61,2.38,1.32,4.91,2.36,7.53,3.08,0,0,0,0,.01,0,.36.09.73.18,1.09.27.41.1.83.19,1.24.28,1.36.29,2.58.48,3.97.6.46.04.92.08,1.38.11.43.03.86.05,1.29.08.52.03,1.04.06,1.56.09,0,0,0,0,0,0,4.05.23,8.11-.25,11.99-1.43,0,0,0,0,.01,0,.52-.17,1.03-.35,1.55-.54.56-.21,1.11-.42,1.66-.64,1.15-.46,2.05-.84,3.2-1.32,3.16,1.66,6.45,2.96,9.88,3.9,2.83.78,5.69,1.31,8.61,1.63,1.1.12,2.2.21,3.3.28,0,0,.01,0,.02,0,7.21.22,14.42-.71,21.33-2.78l7.47-2.38s.03-.01.05-.02l4.18-1.72,3.48,1.91s.04.02.06.03l4.56,1.87s.02,0,.03.01c4.65,1.62,9.53,2.51,14.45,2.64,0,0,0,0,.01,0,.51,0,1.03,0,1.54,0,.58,0,1.16-.02,1.73-.04,3.83-.14,6.92-.64,10.68-1.35.91,3.11,2.18,6.1,3.79,8.9.89,1.56,1.89,3.05,2.99,4.47,1.21,1.57,2.55,3.04,3.99,4.4.42.4.86.79,1.3,1.17,1.01.86,2.03,1.63,3.14,2.36.28.19.57.37.86.55.31.2.63.39.95.58,0,0,0,0,.01,0,5.94,3.33,12.62,5.11,19.42,5.18,0,0,0,0,.01,0,.85-.01,1.7-.04,2.54-.1,2.97-.18,5.86-.62,8.73-1.33.92-.23,1.84-.49,2.75-.77,1-.31,1.99-.65,2.97-1.02,1.93-.72,3.8-1.54,5.66-2.42,5.26,4.45,11.93,6.89,18.82,6.89l12.21-.03c.71-.02,1.42-.06,2.13-.1.79-.05,1.58-.12,2.36-.21.79-.09,1.58-.2,2.36-.34.87-.15,1.74-.33,2.6-.55,2.49-.62,4.86-1.52,7.13-2.7.72-.38,1.44-.78,2.13-1.21,3.66,2.81,7.92,4.67,12.43,5.57,1.16.23,2.34.4,3.52.51,3.99.36,8.06.03,11.94-.97,2.57.72,5.22,1.09,7.89,1.09h2.2c6.14,0,12.12-1.94,17.09-5.53,1.48.92,3.05,1.71,4.67,2.35,1.94.76,3.96,1.32,6.02,1.67,2.06.35,4.17.49,6.26.44,2.26-.06,4.52-.34,6.73-.83,2.16.5,4.37.75,6.58.75,0,0,0,0,.01,0,.55-.01,1.1-.02,1.66-.04.3,0,.6-.02.9-.03,1.03-.04,1.77-.09,2.79-.22.31-.04.62-.08.93-.13l.99-.14c3.91-.59,7.64-2.07,10.89-4.32,1.2.31,2.4.57,3.62.78,1.44.25,2.89.43,4.35.54,1.46.11,2.91.17,4.37.16,1.61,0,3.22-.08,4.82-.21,4.69-.4,9.35-1.33,13.84-2.73,1.73-.54,3.43-1.15,5.1-1.83.67-.27,1.33-.55,1.99-.85,3.54-1.57,7.28-3.53,10.61-5.58.72-.45,1.44-.9,2.15-1.38.79-.53,1.57-1.08,2.33-1.65l3.74-2.92s.03-.02.04-.03l5.95-5.54s.02-.01.02-.02c.57-.59,1.11-1.2,1.62-1.83,1.14-1.41,2.12-2.89,3.06-4.44.48-.79,1.02-1.7,1.5-2.53.58-.99,1.14-2,1.68-3.02.6-1.12,1.17-2.26,1.71-3.41.55-1.15,1.07-2.3,1.58-3.47.56-1.29,1.09-2.59,1.6-3.89.46-1.19.91-2.38,1.34-3.57.48-1.32.94-2.65,1.38-3.98.44-1.33.88-2.67,1.3-4.01.46-1.48.92-2.97,1.36-4.46.41-1.39.81-2.79,1.2-4.19.42-1.55.83-3.1,1.21-4.66.39-1.56.76-3.11,1.11-4.68.39-1.73.77-3.46,1.13-5.19,1.05-5.02,2-10.11,2.9-15.17.34-1.93.68-3.86,1.02-5.79h0c1.3-7.54-.44-15.28-4.84-21.54.14-1.91.11-3.84-.1-5.75-.24-2.14-.7-4.24-1.36-6.29.16-.79.29-1.58.39-2.38.12-.92.2-1.85.26-2.78.06-.92.09-1.84.09-2.76,0-1.01-.02-2.02-.06-3.03-.16-3.41-.64-7.03-1.47-10.36-.15-.59-.31-1.17-.48-1.76l-1.48-4.46s0-.02-.01-.04c-.1-.24-.2-.48-.31-.72-.3-.68-.7-1.5-1.04-2.19-.46-.93-.94-1.86-1.42-2.79-.44-.85-.89-1.7-1.35-2.55-.53-.98-1.07-1.96-1.61-2.94,0,0,0,0,0,0-.66-1.13-1.38-2.22-2.17-3.26-2.56-3.53-5.57-6.71-8.97-9.44-3.53-2.88-7.48-5.21-11.7-6.91-.02,0-2.2-.77-2.24-.78-.04-.07-.07-.14-.11-.2-.08-.14-.15-.27-.23-.41-.39-.66-.9-1.48-1.33-2.17-.46-.72-.84-1.31-1.3-2-.2-.3-.39-.59-.6-.88h0c-1.38-2.01-3.09-3.83-4.94-5.42-2.03-1.74-4.3-3.28-6.66-4.54-1.63-.87-3.32-1.62-5.05-2.24l-.36-2.95s0-.03,0-.04c-1.19-6.11-3.84-11.84-7.71-16.7-.01-.01-.02-.02-.03-.04l-4.17-4.45s-.04-.04-.07-.06l-2.83-2.23s-.02-.02-.03-.03l-22-14.93s-.02-.01-.03-.02c-2.27-1.37-4.63-2.46-7.13-3.29-.62-.21-1.25-.4-1.89-.58-1.39-.39-2.8-.71-4.22-.99-.77-.15-1.55-.29-2.33-.43h0c-2.1-.34-4.24-.4-6.36-.19-2.19.19-4.36.58-6.48,1.16-2.35.65-4.64,1.54-6.81,2.65-2.18,1.12-4.24,2.45-6.15,3.97-1,.8-1.96,1.65-2.88,2.54-1.01.99-1.96,2.03-2.86,3.11-1.25,1.5-2.44,3.05-3.57,4.65-.89.16-1.77.35-2.64.57-2.11.54-4.17,1.27-6.14,2.2-1.09.51-2.15,1.09-3.18,1.72-1.88,1.15-3.6,2.48-5.19,3.99-3.53,3.37-6.18,7.53-7.74,12.16-.41,1.2-.74,2.43-.99,3.67-.27,1.32-.46,2.66-.56,4-1.29,2.2-2.36,4.54-3.21,6.94-.95,2.69-1.63,5.55-1.92,8.4h0c-.13,1.28-.19,2.56-.19,3.84,0,1.41.08,2.82.22,4.22.29,2.84.88,5.72,1.8,8.43-2.3,3.19-4.08,6.68-5.21,10.44-2.16,2.64-4.04,5.49-5.6,8.53l-4.91,1.23s-.02,0-.03,0c-.45.13-.9.28-1.34.43-1.47.51-2.97,1.15-4.38,1.84-1.47.72-2.9,1.52-4.27,2.4-.53.34-1.05.69-1.57,1.06,0,0-.02.01-.03.02l-.66.53c-.72.59-1.44,1.19-2.15,1.8l-2.63.63c-1.59-5.68-4.87-10.74-9.4-14.51-2.45-2.04-5.22-3.67-8.19-4.81-3.27-1.26-6.74-1.92-10.24-1.94h-10.97c-4.96,0-9.84,1.26-14.17,3.67-2.45-1.3-5.03-2.33-7.71-3.08-2.57-.73-5.19-1.24-7.85-1.54-4.27-.49-8.58-.47-12.84.07h0c-7.05.91-13.81,3.39-19.78,7.25l-2.39,1.54c-.33-.31-.66-.61-1-.9-1.04-.89-2.13-1.7-3.29-2.41-1.23-.76-2.51-1.42-3.84-1.98-.69-.29-1.39-.57-2.1-.82-.7-.25-1.4-.49-2.11-.71-.77-.24-1.55-.47-2.32-.69,0,0,0,0-.01,0-11.36-2.91-23.37-1.81-34.01,3.1-.02.01-5.53,2.99-5.55,3-7.92,4.98-15.25,10.85-21.85,17.49h0c-4.15,4.18-7.94,8.7-11.35,13.5l-8.79.31c-5.31.19-10.47,1.82-14.92,4.73-2.98-1.94-6.28-3.33-9.76-4.08-1.71-8.08-5.3-15.55-10.51-21.92-1.32-1.61-2.74-3.15-4.24-4.6-1.66-1.6-3.42-3.09-5.27-4.46-1.85-1.37-3.78-2.62-5.78-3.75-2.21-1.24-4.5-2.33-6.85-3.27-.6-.24-1.2-.47-1.8-.69-.66-.24-1.32-.47-1.99-.7-1.39-.46-2.79-.89-4.2-1.29-2.15-.6-4.36-1.12-6.56-1.52-.86-.16-1.73-.29-2.59-.4l-11.54-1.1s-.03,0-.05,0l-4.72-.03-8.93.14s-.03,0-.04,0l-13.85,1.25c-.37.04-1.91.27-2.47.35-2.51.37-5.26.8-7.75,1.2-.06,0-2.61.42-3.31.55l-14.69,2.88c-3.33.68-6.51,1.95-9.39,3.76-1.52.95-2.95,2.04-4.26,3.26-1.46,1.35-2.77,2.84-3.93,4.45-2.21,3.08-3.8,6.55-4.69,10.22-.98,4.03-1.08,8.22-.3,12.29Z"/>
  <path class="cls-2" d="M135.14,289.75l1.32,6.95c15.3-4.88,68.95-15.67,71.58,10.86,1,21.6-34.36,29.62-51.15,27.72l9.67-36.26-12.57.33-19.19,74.11h11.91l8.31-31.15c17.69-.66,52.69-4.93,50.1,22.26-3.28,25.01-44.67,29.14-67.86,30.48l-.14,6.86c30.83-.26,70.88-2.76,78.74-39.37.9-15.73-8.04-23.67-25.15-25.15-1.86-.99-1.75-1.7.33-2.98,21.04-6.5,26.92-14.92,27.31-24.04-.59-37.7-60.49-25.47-83.23-20.62ZM230.42,326.8c-3.2,11.41-6.4,22.83-9.59,34.24-2.32,8.74-1.05,15.41,8.11,17.54,8.61,1.43,20.01-5.83,37.88-27.79-2.9,8.08-4.83,15.19-4.63,20.18.05,5.73,3.64,8.16,10.75,7.28,6.93-2.18,13.06-7.16,19.21-12.61,1.93,6.49,5.71,11.35,12.72,13.47,11.87,4.62,33.17-5.22,44.17-12.39,2.03,5.89,5.76,10.3,12.34,12.29,12.51,4.87,42.11-11.51,52.85-19.02l-6.7,26.27c-7.65,43.68,48.69,5.76,45.47-23.24-.66-7.22-3.14-13.66-6.93-19.51,13.16,3.59,25.51,2.81,30.67-11.47h28.48c-12.16,8.16-24.32,16.32-36.48,24.49-4.75,5.75-5.5,11.16-2.25,16.24,11.47,14.2,41.2,4.1,54.4-6.48,3.01,6.43,9.71,11.68,21.1,13.88,37.49,5.17,58.5-48.59,16.53-55.48v.17c-23.53-2.39-41.49,18.31-39.38,35.31-8.14,3.79-20.11,13.81-34.92,10.74-6.62-1.37-8.24-7.15-3.33-13.26,7.3-9.08,27.25-19.49,41.56-24.11l.25-6-38.73.25c-1.76-4.48-1.25-8.5.65-12.29,2.46-4.89,4.46-6.09-3.5-6.21-9.33-.14-9.78,11.15-10.15,20-2.87,13.21-19.49,9.24-34.73,2.63-1.1-1.05-2.24-2.07-3.41-3.09l10.16-39.52h-10.74l-9.23,36.19c-5.24-2.77-9.49-5.24-11.75-6.45v9.99c2.76,1.1,6.08,2.66,9.73,4.38l-5.43,21.28c-31.73,19.76-54.85,20.55-57.95,5.59,12.87-6.85,27-18.15,38.59-30.28,10.37-11.5,23.38-28.27,7.87-40.68-6.07-2.17-13.04-1.8-19.1,2.02-27.41,17.32-38.7,43.13-37.98,63.83.15,2.35.4,4.61.8,6.73-30.46,14.8-43.9,10.55-46.68-1.53,12.87-6.85,27-18.15,38.59-30.28,10.37-11.5,23.38-28.27,7.87-40.68-6.07-2.17-13.04-1.8-19.1,2.02-27.41,17.32-38.7,43.13-37.98,63.83.1,1.68.26,3.31.49,4.88-3.55,4.04-8.12,7.3-14.07,10.14-4.91,2.59-6.95.99-6.12-4.8l11.41-38.71-10.09.33c-10.4,23.51-24.61,44.86-38.38,43.84-10.89.24,4.7-37.96,6.45-43.84l-9.76-.33ZM300.55,355c.01-9.99,5-23.16,12.64-35.45.22,0,0-.9.45-1.35,10.01-18.53,19.81-28.67,29.22-23.82,14.42,14.06-28.37,52.24-42.3,60.62ZM357.07,354.9c.01-9.99,5-23.16,12.64-35.45.22,0,0-.9.45-1.35,10.01-18.53,19.81-28.67,29.22-23.82,14.42,14.06-28.37,52.24-42.3,60.62ZM559.1,331.46c28,6.16,5.96,46.82-16.8,41.93-25.76-8.18-5.7-45.09,16.8-41.93ZM429.53,341.76c22.04,7.08,14,43.99-2.58,53.44-7.75,4.41-10.77,3.6-9.24-3.59l4.81-22.59,7.01-27.25ZM653.14,326.99c-15.24-.66-34.69-3.41-48.3,5.06-20.25,12.61-28.94,43.25,2.53,43.91,11.22-.62,18.84-8.06,28.81-15.82-1.23,9.7-5.03,19.41-12.98,29.11-5.61,6.27-22.91,16.42-25.52-.5h-11.74c6.8,24.53,35.27,14.86,48.22,1.25,9.98-15.37,15.22-40.45,18.99-63.02ZM644.77,334.35c-8.89,20.39-21.59,34.4-36.47,35.05-15.12.19-12.48-21.11-1.18-30.1,11.43-9.1,24.18-7.81,37.66-4.95Z"/>
</svg>