<?xml version="1.0" encoding="UTF-8"?>
<svg width="1600" height="520" viewBox="0 0 1600 520" fill="none" xmlns="http://www.w3.org/2000/svg">
  <defs>
    <filter id="shadow" x="0" y="0" width="1600" height="520" filterUnits="userSpaceOnUse" color-interpolation-filters="sRGB">
      <feDropShadow dx="0" dy="14" stdDeviation="16" flood-color="#000000" flood-opacity="0.22"/>
    </filter>
  </defs>

  <g filter="url(#shadow)">
        
    <rect x="184" y="136" width="1232" height="248" rx="0" fill="#111111"/>
    <rect x="204" y="156" width="1192" height="208" rx="0" stroke="#D89C2B" stroke-width="6"/>

    <!-- bulb lights -->
    <circle cx="228" cy="180" r="4.6" fill="#D89C2B"/>
    <circle cx="254" cy="180" r="4.6" fill="#D89C2B"/>
    <circle cx="280" cy="180" r="4.6" fill="#D89C2B"/>
    <circle cx="306" cy="180" r="4.6" fill="#D89C2B"/>
    <circle cx="332" cy="180" r="4.6" fill="#D89C2B"/>
    <circle cx="358" cy="180" r="4.6" fill="#D89C2B"/>
    <circle cx="384" cy="180" r="4.6" fill="#D89C2B"/>
    <circle cx="410" cy="180" r="4.6" fill="#D89C2B"/>
    <circle cx="436" cy="180" r="4.6" fill="#D89C2B"/>
    <circle cx="462" cy="180" r="4.6" fill="#D89C2B"/>
    <circle cx="488" cy="180" r="4.6" fill="#D89C2B"/>
    <circle cx="514" cy="180" r="4.6" fill="#D89C2B"/>
    <circle cx="540" cy="180" r="4.6" fill="#D89C2B"/>
    <circle cx="566" cy="180" r="4.6" fill="#D89C2B"/>
    <circle cx="592" cy="180" r="4.6" fill="#D89C2B"/>
    <circle cx="618" cy="180" r="4.6" fill="#D89C2B"/>
    <circle cx="644" cy="180" r="4.6" fill="#D89C2B"/>
    <circle cx="670" cy="180" r="4.6" fill="#D89C2B"/>
    <circle cx="696" cy="180" r="4.6" fill="#D89C2B"/>
    <circle cx="722" cy="180" r="4.6" fill="#D89C2B"/>
    <circle cx="748" cy="180" r="4.6" fill="#D89C2B"/>
    <circle cx="774" cy="180" r="4.6" fill="#D89C2B"/>
    <circle cx="800" cy="180" r="4.6" fill="#D89C2B"/>
    <circle cx="826" cy="180" r="4.6" fill="#D89C2B"/>
    <circle cx="852" cy="180" r="4.6" fill="#D89C2B"/>
    <circle cx="878" cy="180" r="4.6" fill="#D89C2B"/>
    <circle cx="904" cy="180" r="4.6" fill="#D89C2B"/>
    <circle cx="930" cy="180" r="4.6" fill="#D89C2B"/>
    <circle cx="956" cy="180" r="4.6" fill="#D89C2B"/>
    <circle cx="982" cy="180" r="4.6" fill="#D89C2B"/>
    <circle cx="1008" cy="180" r="4.6" fill="#D89C2B"/>
    <circle cx="1034" cy="180" r="4.6" fill="#D89C2B"/>
    <circle cx="1060" cy="180" r="4.6" fill="#D89C2B"/>
    <circle cx="1086" cy="180" r="4.6" fill="#D89C2B"/>
    <circle cx="1112" cy="180" r="4.6" fill="#D89C2B"/>
    <circle cx="1138" cy="180" r="4.6" fill="#D89C2B"/>
    <circle cx="1164" cy="180" r="4.6" fill="#D89C2B"/>
    <circle cx="1190" cy="180" r="4.6" fill="#D89C2B"/>
    <circle cx="1216" cy="180" r="4.6" fill="#D89C2B"/>
    <circle cx="1242" cy="180" r="4.6" fill="#D89C2B"/>
    <circle cx="1268" cy="180" r="4.6" fill="#D89C2B"/>
    <circle cx="1294" cy="180" r="4.6" fill="#D89C2B"/>
    <circle cx="1320" cy="180" r="4.6" fill="#D89C2B"/>
    <circle cx="1346" cy="180" r="4.6" fill="#D89C2B"/>
    <circle cx="1372" cy="180" r="4.6" fill="#D89C2B"/>

    <circle cx="228" cy="340" r="4.6" fill="#D89C2B"/>
    <circle cx="254" cy="340" r="4.6" fill="#D89C2B"/>
    <circle cx="280" cy="340" r="4.6" fill="#D89C2B"/>
    <circle cx="306" cy="340" r="4.6" fill="#D89C2B"/>
    <circle cx="332" cy="340" r="4.6" fill="#D89C2B"/>
    <circle cx="358" cy="340" r="4.6" fill="#D89C2B"/>
    <circle cx="384" cy="340" r="4.6" fill="#D89C2B"/>
    <circle cx="410" cy="340" r="4.6" fill="#D89C2B"/>
    <circle cx="436" cy="340" r="4.6" fill="#D89C2B"/>
    <circle cx="462" cy="340" r="4.6" fill="#D89C2B"/>
    <circle cx="488" cy="340" r="4.6" fill="#D89C2B"/>
    <circle cx="514" cy="340" r="4.6" fill="#D89C2B"/>
    <circle cx="540" cy="340" r="4.6" fill="#D89C2B"/>
    <circle cx="566" cy="340" r="4.6" fill="#D89C2B"/>
    <circle cx="592" cy="340" r="4.6" fill="#D89C2B"/>
    <circle cx="618" cy="340" r="4.6" fill="#D89C2B"/>
    <circle cx="644" cy="340" r="4.6" fill="#D89C2B"/>
    <circle cx="670" cy="340" r="4.6" fill="#D89C2B"/>
    <circle cx="696" cy="340" r="4.6" fill="#D89C2B"/>
    <circle cx="722" cy="340" r="4.6" fill="#D89C2B"/>
    <circle cx="748" cy="340" r="4.6" fill="#D89C2B"/>
    <circle cx="774" cy="340" r="4.6" fill="#D89C2B"/>
    <circle cx="800" cy="340" r="4.6" fill="#D89C2B"/>
    <circle cx="826" cy="340" r="4.6" fill="#D89C2B"/>
    <circle cx="852" cy="340" r="4.6" fill="#D89C2B"/>
    <circle cx="878" cy="340" r="4.6" fill="#D89C2B"/>
    <circle cx="904" cy="340" r="4.6" fill="#D89C2B"/>
    <circle cx="930" cy="340" r="4.6" fill="#D89C2B"/>
    <circle cx="956" cy="340" r="4.6" fill="#D89C2B"/>
    <circle cx="982" cy="340" r="4.6" fill="#D89C2B"/>
    <circle cx="1008" cy="340" r="4.6" fill="#D89C2B"/>
    <circle cx="1034" cy="340" r="4.6" fill="#D89C2B"/>
    <circle cx="1060" cy="340" r="4.6" fill="#D89C2B"/>
    <circle cx="1086" cy="340" r="4.6" fill="#D89C2B"/>
    <circle cx="1112" cy="340" r="4.6" fill="#D89C2B"/>
    <circle cx="1138" cy="340" r="4.6" fill="#D89C2B"/>
    <circle cx="1164" cy="340" r="4.6" fill="#D89C2B"/>
    <circle cx="1190" cy="340" r="4.6" fill="#D89C2B"/>
    <circle cx="1216" cy="340" r="4.6" fill="#D89C2B"/>
    <circle cx="1242" cy="340" r="4.6" fill="#D89C2B"/>
    <circle cx="1268" cy="340" r="4.6" fill="#D89C2B"/>
    <circle cx="1294" cy="340" r="4.6" fill="#D89C2B"/>
    <circle cx="1320" cy="340" r="4.6" fill="#D89C2B"/>
    <circle cx="1346" cy="340" r="4.6" fill="#D89C2B"/>
    <circle cx="1372" cy="340" r="4.6" fill="#D89C2B"/>

    <circle cx="228" cy="206" r="4.6" fill="#D89C2B"/>
    <circle cx="228" cy="232" r="4.6" fill="#D89C2B"/>
    <circle cx="228" cy="258" r="4.6" fill="#D89C2B"/>
    <circle cx="228" cy="284" r="4.6" fill="#D89C2B"/>
    <circle cx="228" cy="310" r="4.6" fill="#D89C2B"/>

    <circle cx="1372" cy="206" r="4.6" fill="#D89C2B"/>
    <circle cx="1372" cy="232" r="4.6" fill="#D89C2B"/>
    <circle cx="1372" cy="258" r="4.6" fill="#D89C2B"/>
    <circle cx="1372" cy="284" r="4.6" fill="#D89C2B"/>
    <circle cx="1372" cy="310" r="4.6" fill="#D89C2B"/>

    <text x="800" y="286"
      text-anchor="middle"
      font-family="Impact, Haettenschweiler, 'Arial Narrow Bold', sans-serif"
      font-size="94"
      font-weight="700"
      letter-spacing="2"
      fill="#D89C2B">BULLFROG BAR</text>
  </g>
</svg>
